<svg width="19" height="19" viewBox="0 0 19 19" fill="none" xmlns="http://www.w3.org/2000/svg">
    <path d="M13.2371 4.98633C14.798 6.07121 15.8751 7.79608 16.0936 9.78633Z" fill="#042656"/>
    <path d="M13.2371 4.98633C14.798 6.07121 15.8751 7.79608 16.0936 9.78633" stroke="#042656" stroke-width="1.17073" stroke-linecap="round" stroke-linejoin="round"/>
    <path d="M2.72388 9.82527C2.9268 7.84283 3.98827 6.11795 5.53363 5.02527Z" fill="#042656"/>
    <path d="M2.72388 9.82527C2.9268 7.84283 3.98827 6.11795 5.53363 5.02527" stroke="#042656" stroke-width="1.17073" stroke-linecap="round" stroke-linejoin="round"/>
    <path d="M6.39221 16.514C7.29758 16.9745 8.32782 17.2321 9.4127 17.2321C10.4586 17.2321 11.442 16.9979 12.3239 16.5687" fill="#042656"/>
    <path d="M6.39221 16.514C7.29758 16.9745 8.32782 17.2321 9.4127 17.2321C10.4586 17.2321 11.442 16.9979 12.3239 16.5687" stroke="#042656" stroke-width="1.17073" stroke-linecap="round" stroke-linejoin="round"/>
    <path d="M9.41268 6.18045C10.611 6.18045 11.5824 5.20902 11.5824 4.0107C11.5824 2.81238 10.611 1.84094 9.41268 1.84094C8.21435 1.84094 7.24292 2.81238 7.24292 4.0107C7.24292 5.20902 8.21435 6.18045 9.41268 6.18045Z" stroke="#042656" stroke-width="1.17073" stroke-linecap="round" stroke-linejoin="round"/>
    <path d="M3.76973 15.7179C4.96805 15.7179 5.93949 14.7465 5.93949 13.5482C5.93949 12.3499 4.96805 11.3784 3.76973 11.3784C2.57141 11.3784 1.59998 12.3499 1.59998 13.5482C1.59998 14.7465 2.57141 15.7179 3.76973 15.7179Z" stroke="#042656" stroke-width="1.17073" stroke-linecap="round" stroke-linejoin="round"/>
    <path d="M14.962 15.7179C16.1603 15.7179 17.1317 14.7465 17.1317 13.5482C17.1317 12.3499 16.1603 11.3784 14.962 11.3784C13.7637 11.3784 12.7922 12.3499 12.7922 13.5482C12.7922 14.7465 13.7637 15.7179 14.962 15.7179Z" stroke="#042656" stroke-width="1.17073" stroke-linecap="round" stroke-linejoin="round"/>
</svg>
