<svg width="24" height="25" viewBox="0 0 24 25" fill="none" xmlns="http://www.w3.org/2000/svg">
    <path d="M12.0039 23.833L12.002 23.832C12.0199 23.832 12.0378 23.8311 12.0557 23.8311C12.0386 23.8311 12.021 23.833 12.0039 23.833ZM10.0859 11.8984C10.0474 12.0272 10.0211 12.1608 10.0088 12.2988L10 12.502C10.0012 12.9782 10.1486 13.4109 10.4434 13.7705L10.5781 13.9199C10.9638 14.307 11.4522 14.4983 11.9971 14.499V14.5L11.998 14.499L12 14.5V14.499C12.2094 14.4997 12.4104 14.4723 12.6006 14.416L7.1709 17.3291L10.0859 11.8984ZM13.5557 13.7705L13.457 13.957L13.2783 14.0527L13.4238 13.9189C13.4709 13.8712 13.5144 13.8212 13.5557 13.7705ZM13.9062 13.1191C13.9476 12.9861 13.9765 12.848 13.9902 12.7051L14 12.5049C14.0034 12.0248 13.856 11.5886 13.5576 11.2275L13.4209 11.0771C13.0334 10.6924 12.5451 10.5 12 10.5C11.7898 10.5 11.5881 10.5286 11.3975 10.5859L16.8291 7.6709L13.9062 13.1191ZM10.5801 11.0781C10.534 11.1241 10.4908 11.1719 10.4502 11.2207L10.5439 11.0439L10.7236 10.9473L10.5801 11.0781Z" fill="#BBBBBB" stroke="#BBBBBB" stroke-width="1.33333"/>
</svg>
