<svg width="20" height="21" viewBox="0 0 20 21" fill="none" xmlns="http://www.w3.org/2000/svg">
    <path d="M13.682 1.12834L2.70153 4.97795L1.50192 5.51447L0.807737 6.14555L0.239768 6.90284L0.0507812 7.7548V8.70141L0.429048 9.61648L0.997027 10.2476L1.50192 10.8471L1.97558 11.1311L2.9222 11.7621L5.41495 12.7403H5.85671L10.6529 7.7548L11.1192 7.60691H11.4211L11.7573 7.7548L11.9608 8.06431L11.9151 8.43938L11.8236 8.79616L7.21352 13.6554V13.9709L7.59217 15.0437L8.09703 16.5899L8.63345 17.7258L9.4854 18.8302L10.1165 19.5559L10.9369 19.9346L11.7573 20.1239L12.7354 19.9346L13.4612 19.5559L14.2816 18.6409L14.9127 17.568L15.4491 16.5899L18.9831 5.7669L19.1724 5.16738V4.44164L18.9831 3.33726L18.5414 2.29598L17.8787 1.69646L16.9321 1.12834L15.4491 0.875977L13.682 1.12834Z" fill="#D9D9D9"/>
</svg>
