<svg width="21" height="22" viewBox="0 0 21 22" fill="none" xmlns="http://www.w3.org/2000/svg">
    <path d="M9.4668 0.635498C10.1392 0.506924 10.8336 0.532125 11.4971 0.710693L11.5537 0.726318L11.7412 0.781006C12.1769 0.917762 12.5912 1.11662 12.9707 1.37183L19.4014 5.69702L19.5869 5.83081C20.0095 6.15647 20.3543 6.57455 20.5938 7.05347L20.6807 7.23999C20.8698 7.68074 20.9677 8.15641 20.9678 8.63745V16.8406C20.9677 17.3162 20.8939 17.7888 20.749 18.241L20.6816 18.4333C20.4092 19.169 19.9539 19.8216 19.3604 20.3289L19.0977 20.5369L18.9805 20.6228C18.1097 21.2629 17.0573 21.6082 15.9766 21.6082H5.58496C4.44108 21.6081 3.32589 21.2271 2.41992 20.5369L2.24219 20.3943C1.7829 20.0115 1.3907 19.5495 1.08887 19.033L0.96582 18.8083C0.633803 18.1682 0.439586 17.4663 0.396484 16.7488L0.387695 16.4402V9.04077C0.387811 8.20833 0.643677 7.39556 1.12109 6.71362L1.30566 6.47046C1.49853 6.23491 1.71791 6.02168 1.95898 5.83472L7.54004 1.50659L7.72559 1.36987C8.16649 1.06253 8.65923 0.835142 9.18066 0.699951L9.4668 0.635498ZM10.9492 13.0867C10.3484 13.0867 9.86133 13.5737 9.86133 14.1746V18.0486C9.86133 18.6494 10.3484 19.1365 10.9492 19.1365C11.55 19.1365 12.0371 18.6494 12.0371 18.0486V14.1746C12.0371 13.5737 11.55 13.0867 10.9492 13.0867Z" fill="black"/>
</svg>
