<svg width="24" height="24" viewBox="0 0 24 24" fill="none" xmlns="http://www.w3.org/2000/svg">
    <path d="M12.0039 23.333L12.002 23.332C12.0199 23.332 12.0378 23.3311 12.0557 23.3311C12.0386 23.3311 12.021 23.333 12.0039 23.333ZM10.0859 11.3984C10.0474 11.5272 10.0211 11.6608 10.0088 11.7988L10 12.002C10.0012 12.4782 10.1486 12.9109 10.4434 13.2705L10.5781 13.4199C10.9638 13.807 11.4522 13.9983 11.9971 13.999V14L11.998 13.999L12 14V13.999C12.2094 13.9997 12.4104 13.9723 12.6006 13.916L7.1709 16.8291L10.0859 11.3984ZM13.5557 13.2705L13.457 13.457L13.2783 13.5527L13.4238 13.4189C13.4709 13.3712 13.5144 13.3212 13.5557 13.2705ZM13.9062 12.6191C13.9476 12.4861 13.9765 12.348 13.9902 12.2051L14 12.0049C14.0034 11.5248 13.856 11.0886 13.5576 10.7275L13.4209 10.5771C13.0334 10.1924 12.5451 10 12 10C11.7898 10 11.5881 10.0286 11.3975 10.0859L16.8291 7.1709L13.9062 12.6191ZM10.5801 10.5781C10.534 10.6241 10.4908 10.6719 10.4502 10.7207L10.5439 10.5439L10.7236 10.4473L10.5801 10.5781Z" fill="#042656" stroke="#042656" stroke-width="1.33333"/>
</svg>
