<svg width="19" height="19" viewBox="0 0 19 19" fill="none" xmlns="http://www.w3.org/2000/svg">
    <path d="M13.0265 9.34485L13.0314 9.39563C13.051 9.49404 13.1263 9.56933 13.2247 9.58899L13.2765 9.59387C13.3992 9.59369 13.4977 9.51043 13.5206 9.39563L13.5255 9.34485C13.5255 9.22197 13.4422 9.12261 13.3273 9.09973L13.2765 9.09485M13.0265 9.34485H12.9406M13.0265 9.34485C13.0265 9.20436 13.136 9.09485 13.2765 9.09485M13.0265 9.34485H12.9406M13.2765 9.09485V9.00891M13.2765 9.09485V9.00891M13.2765 9.00891L13.3429 9.01575C13.473 9.04293 13.5774 9.14743 13.6046 9.27747L13.6115 9.34485L13.6046 9.41125C13.5774 9.54139 13.4729 9.64578 13.3429 9.67297L13.2765 9.67981L13.2091 9.67297C13.0791 9.64572 12.9746 9.54132 12.9474 9.41125L12.9406 9.34485M13.2765 9.00891C13.0936 9.00891 12.9406 9.16212 12.9406 9.34485M14.0939 9.17688C14.1052 9.23109 14.1115 9.28756 14.1115 9.34485C14.1115 9.31596 14.1094 9.28701 14.1066 9.25891L14.0939 9.17688Z" fill="#042656" stroke="#042656" stroke-width="1.17073"/>
    <path d="M9.38143 13.0829H4.6829C1.87315 13.0829 0.975586 12.1853 0.975586 9.37559V4.9268C0.975586 2.11704 1.87315 1.21948 4.6829 1.21948H12.4878C15.2975 1.21948 16.1951 2.11704 16.1951 4.9268V6.32386C16.1951 6.48776 16.1249 6.65166 16 6.76093C15.8751 6.87019 15.7112 6.92487 15.5395 6.90146C15.3678 6.87804 15.1648 6.87021 14.9463 6.87021H11.6058C10.2556 6.87021 9.9668 7.15902 9.9668 8.50926V12.4975C9.9668 12.8175 9.70143 13.0829 9.38143 13.0829ZM4.6829 2.39021C2.50534 2.39021 2.14632 2.74924 2.14632 4.9268V9.37559C2.14632 11.5532 2.50534 11.9122 4.6829 11.9122H8.79606V8.50926C8.79606 6.51121 9.60778 5.69947 11.6058 5.69947H14.9463C14.9697 5.69947 15.001 5.69947 15.0244 5.69947V4.9268C15.0244 2.74924 14.6653 2.39021 12.4878 2.39021H4.6829Z" fill="#042656"/>
    <path d="M7.02439 16.4389C6.70439 16.4389 6.43903 16.1736 6.43903 15.8536V12.4975C6.43903 12.1775 6.70439 11.9121 7.02439 11.9121C7.34439 11.9121 7.60976 12.1775 7.60976 12.4975V15.8536C7.60976 16.1736 7.34439 16.4389 7.02439 16.4389Z" fill="#042656"/>
    <path d="M9.36583 10.1171H1.56095C1.24095 10.1171 0.975586 9.85178 0.975586 9.53178C0.975586 9.21178 1.24095 8.94641 1.56095 8.94641H9.36583C9.68583 8.94641 9.9512 9.21178 9.9512 9.53178C9.9512 9.85178 9.68583 10.1171 9.36583 10.1171Z" fill="#042656"/>
    <path d="M9.36602 16.439H4.64408C4.32408 16.439 4.05872 16.1737 4.05872 15.8537C4.05872 15.5337 4.32408 15.2683 4.64408 15.2683H9.36602C9.68602 15.2683 9.95139 15.5337 9.95139 15.8537C9.95139 16.1737 9.68602 16.439 9.36602 16.439Z" fill="#042656"/>
    <path d="M13.2761 10.7649C12.4956 10.7649 11.8556 10.1249 11.8556 9.3444C11.8556 8.56391 12.4956 7.92395 13.2761 7.92395C14.0566 7.92395 14.6966 8.56391 14.6966 9.3444C14.6966 10.1249 14.0566 10.7649 13.2761 10.7649ZM13.2761 9.09468C13.1356 9.09468 13.0263 9.20391 13.0263 9.3444C13.0263 9.48488 13.1356 9.59416 13.2761 9.59416C13.4166 9.59416 13.5258 9.48488 13.5258 9.3444C13.5258 9.20391 13.4166 9.09468 13.2761 9.09468Z" fill="#042656"/>
    <path d="M15.6098 6.32393C15.4146 6.30051 15.1883 6.28491 14.9464 6.28491H11.6059C9.93562 6.28491 9.38147 6.83909 9.38147 8.50933V15.1903C9.38147 16.8605 9.93562 17.4147 11.6059 17.4147H14.9464C16.6166 17.4147 17.1707 16.8605 17.1707 15.1903V8.50933C17.1707 7.08104 16.7649 6.47222 15.6098 6.32393ZM13.2761 8.50933C13.7366 8.50933 14.1112 8.88392 14.1112 9.34441C14.1112 9.8049 13.7366 10.1795 13.2761 10.1795C12.8156 10.1795 12.441 9.8049 12.441 9.34441C12.441 8.88392 12.8156 8.50933 13.2761 8.50933ZM13.2761 15.1903C12.3551 15.1903 11.6059 14.441 11.6059 13.52C11.6059 13.1376 11.7386 12.7786 11.9571 12.4976C12.2615 12.1074 12.7376 11.8498 13.2761 11.8498C13.6976 11.8498 14.08 12.0059 14.3688 12.2557C14.72 12.5679 14.9464 13.0205 14.9464 13.52C14.9464 14.441 14.1971 15.1903 13.2761 15.1903Z" stroke="#042656" stroke-width="1.17073" stroke-miterlimit="10" stroke-linecap="round" stroke-linejoin="round"/>
    <path d="M13.2762 15.7756C12.0352 15.7756 11.0206 14.761 11.0206 13.52C11.0206 13.0205 11.1923 12.5288 11.4967 12.1385C11.9259 11.5844 12.5816 11.2644 13.2762 11.2644C13.8147 11.2644 14.3454 11.4595 14.7513 11.8108C15.2508 12.2556 15.5318 12.8722 15.5318 13.52C15.5318 14.761 14.5172 15.7756 13.2762 15.7756ZM13.2762 12.4351C12.9406 12.4351 12.6284 12.5912 12.4176 12.8566C12.2694 13.0439 12.1913 13.2781 12.1913 13.52C12.1913 14.121 12.6752 14.6049 13.2762 14.6049C13.8772 14.6049 14.3611 14.121 14.3611 13.52C14.3611 13.2078 14.2206 12.9112 13.9786 12.6927C13.7913 12.5288 13.5338 12.4351 13.2762 12.4351Z" fill="#042656"/>
    <path d="M13.2761 10.7649C12.4956 10.7649 11.8556 10.1249 11.8556 9.3444C11.8556 8.56391 12.4956 7.92395 13.2761 7.92395C14.0566 7.92395 14.6966 8.56391 14.6966 9.3444C14.6966 10.1249 14.0566 10.7649 13.2761 10.7649ZM13.2761 9.09468C13.1356 9.09468 13.0263 9.20391 13.0263 9.3444C13.0263 9.48488 13.1356 9.59416 13.2761 9.59416C13.4166 9.59416 13.5258 9.48488 13.5258 9.3444C13.5258 9.20391 13.4166 9.09468 13.2761 9.09468Z" fill="#042656"/>
</svg>
