<svg width="16" height="16" viewBox="0 0 16 16" fill="none" xmlns="http://www.w3.org/2000/svg">
    <path d="M9.68674 6.31334L6.3134 9.68668C5.88007 9.25334 5.6134 8.66001 5.6134 8.00001C5.6134 6.68001 6.68007 5.61334 8.00007 5.61334C8.66007 5.61334 9.2534 5.88001 9.68674 6.31334Z" stroke="#292D32" stroke-linecap="round" stroke-linejoin="round"/>
    <path d="M11.88 3.84663C10.7134 2.96663 9.38002 2.48663 8.00002 2.48663C5.64668 2.48663 3.45335 3.8733 1.92668 6.2733C1.32668 7.2133 1.32668 8.7933 1.92668 9.7333C2.45335 10.56 3.06668 11.2733 3.73335 11.8466" stroke="#292D32" stroke-linecap="round" stroke-linejoin="round"/>
    <path d="M5.6134 13.02C6.3734 13.34 7.18007 13.5133 8.00007 13.5133C10.3534 13.5133 12.5467 12.1267 14.0734 9.72668C14.6734 8.78668 14.6734 7.20668 14.0734 6.26668C13.8534 5.92002 13.6134 5.59335 13.3667 5.28668" stroke="#292D32" stroke-linecap="round" stroke-linejoin="round"/>
    <path d="M10.34 8.46667C10.1666 9.40667 9.39996 10.1733 8.45996 10.3467" stroke="#292D32" stroke-linecap="round" stroke-linejoin="round"/>
    <path d="M6.31337 9.68671L1.33337 14.6667" stroke="#292D32" stroke-linecap="round" stroke-linejoin="round"/>
    <path d="M14.6666 1.33331L9.68665 6.31331" stroke="#292D32" stroke-linecap="round" stroke-linejoin="round"/>
</svg>
