<svg width="19" height="19" viewBox="0 0 19 19" fill="none" xmlns="http://www.w3.org/2000/svg">
    <path d="M8.17871 17.1298C8.30788 17.1496 8.43819 17.1652 8.56934 17.1786L8.96484 17.2089C8.83178 17.2021 8.6996 17.192 8.56836 17.1786L8.17871 17.1298ZM11.3145 16.9735C11.19 17.0056 11.0643 17.0344 10.9375 17.0604L10.5527 17.1298C10.6818 17.11 10.8096 17.0864 10.9365 17.0604L11.3145 16.9735ZM5.64844 16.2762C6.20148 16.5771 6.79481 16.8128 7.41797 16.9735L7.79492 17.0604C7.16015 16.9303 6.55308 16.7235 5.98438 16.4491L5.64844 16.2762ZM14.0332 15.6669C13.7327 15.8918 13.4157 16.0959 13.084 16.2762L12.7471 16.4491C13.0881 16.2845 13.4152 16.0952 13.7266 15.8846L14.0332 15.6669ZM2.1748 12.4501C2.71862 13.7336 3.59703 14.8421 4.69922 15.6669L5.00488 15.8846C3.86274 15.1125 2.93453 14.0468 2.33105 12.7958L2.1748 12.4501ZM15.3867 14.3768C15.1479 14.6661 14.8888 14.9381 14.6113 15.1903L14.3281 15.4354C14.6172 15.1967 14.8886 14.9373 15.1406 14.66L15.3867 14.3768ZM1.91211 7.09656C1.87405 7.21869 1.83877 7.34207 1.80664 7.46667L1.71973 7.84363C1.7718 7.58962 1.83596 7.34 1.91211 7.09558V7.09656ZM16.8193 7.09558C16.8574 7.21771 16.8927 7.34109 16.9248 7.4657L17.0117 7.84363C16.9597 7.58994 16.8954 7.34069 16.8193 7.09656V7.09558ZM2.50391 5.69714C2.38355 5.91843 2.27371 6.14626 2.1748 6.37976L2.03516 6.73328C2.12279 6.49428 2.22134 6.26052 2.33105 6.03308L2.50391 5.69714ZM16.2275 5.69714C16.3477 5.9182 16.4578 6.14553 16.5566 6.37878L16.6963 6.73328C16.6087 6.49459 16.51 6.26123 16.4004 6.03406L16.2275 5.69714ZM5.00488 2.94421C4.27804 3.43567 3.63816 4.04644 3.11328 4.74792L2.89551 5.05359C3.38679 4.32683 3.99692 3.68677 4.69824 3.16199L5.00488 2.94421ZM12.4014 2.22351C13.6849 2.7671 14.7935 3.64492 15.6182 4.74695L15.8359 5.05359C15.0639 3.91174 13.9977 2.98432 12.7471 2.38074L12.4014 2.22351ZM7.79492 1.76843C7.16041 1.89859 6.55391 2.10639 5.98535 2.38074L5.64844 2.55261C6.20123 2.25205 6.79409 2.01592 7.41699 1.85535L7.79492 1.76843ZM10.5527 1.70007C10.682 1.71987 10.8104 1.74236 10.9375 1.76843L11.3145 1.85535C11.1897 1.82317 11.0636 1.7945 10.9365 1.76843L10.5527 1.70007ZM8.96484 1.62C8.83211 1.62674 8.70026 1.63694 8.56934 1.65027L8.17871 1.70007C8.3076 1.68034 8.43749 1.6636 8.56836 1.65027L8.96484 1.62Z" fill="#042656" stroke="#042656" stroke-width="1.17073"/>
    <path d="M9.3659 12.2478C8.33566 12.2478 7.49274 11.4048 7.49274 10.3746V8.4468C7.49274 7.41655 8.33566 6.57361 9.3659 6.57361C10.3961 6.57361 11.2391 7.41655 11.2391 8.4468V10.3746C11.2391 11.4126 10.3961 12.2478 9.3659 12.2478ZM9.3659 7.75215C8.98346 7.75215 8.66347 8.06437 8.66347 8.45461V10.3824C8.66347 10.7726 8.97566 11.0849 9.3659 11.0849C9.75615 11.0849 10.0683 10.7726 10.0683 10.3824V8.45461C10.0683 8.06437 9.74834 7.75215 9.3659 7.75215Z" fill="#042656"/>
    <path d="M9.36586 14.7375C6.89171 14.7375 4.87805 12.7239 4.87805 10.2497V8.57948C4.87805 6.10533 6.89171 4.09167 9.36586 4.09167C11.6761 4.09167 13.5961 5.82438 13.8302 8.11902C13.8615 8.43902 13.6273 8.72776 13.3073 8.75898C12.9873 8.798 12.6985 8.55606 12.6673 8.23606C12.4956 6.5424 11.0751 5.26241 9.36586 5.26241C7.53952 5.26241 6.04878 6.75314 6.04878 8.57948V10.2497C6.04878 12.0761 7.53952 13.5668 9.36586 13.5668C11.0829 13.5668 12.5346 12.2243 12.6751 10.5151C12.6985 10.1951 12.9795 9.95312 13.3073 9.97654C13.6273 9.99995 13.8693 10.281 13.8459 10.6088C13.6585 12.9268 11.6917 14.7375 9.36586 14.7375Z" fill="#042656"/>
</svg>
