<svg width="19" height="20" viewBox="0 0 19 20" fill="none" xmlns="http://www.w3.org/2000/svg">
    <path d="M8.17871 17.52C8.30788 17.5398 8.43819 17.5555 8.56934 17.5688L8.96484 17.5991C8.83178 17.5924 8.6996 17.5822 8.56836 17.5688L8.17871 17.52ZM11.3145 17.3638C11.19 17.3959 11.0643 17.4247 10.9375 17.4507L10.5527 17.52C10.6818 17.5003 10.8096 17.4767 10.9365 17.4507L11.3145 17.3638ZM5.64844 16.6665C6.20148 16.9673 6.79481 17.2031 7.41797 17.3638L7.79492 17.4507C7.16015 17.3206 6.55308 17.1137 5.98438 16.8394L5.64844 16.6665ZM14.0332 16.0571C13.7327 16.282 13.4157 16.4861 13.084 16.6665L12.7471 16.8394C13.0881 16.6748 13.4152 16.4855 13.7266 16.2749L14.0332 16.0571ZM2.1748 12.8403C2.71862 14.1238 3.59703 15.2324 4.69922 16.0571L5.00488 16.2749C3.86274 15.5028 2.93453 14.4371 2.33105 13.186L2.1748 12.8403ZM15.3867 14.7671C15.1479 15.0564 14.8888 15.3284 14.6113 15.5806L14.3281 15.8257C14.6172 15.587 14.8886 15.3275 15.1406 15.0503L15.3867 14.7671ZM1.91211 7.48682C1.87405 7.60895 1.83877 7.73233 1.80664 7.85693L1.71973 8.23389C1.7718 7.97988 1.83596 7.73026 1.91211 7.48584V7.48682ZM16.8193 7.48584C16.8574 7.60797 16.8927 7.73135 16.9248 7.85596L17.0117 8.23389C16.9597 7.9802 16.8954 7.73095 16.8193 7.48682V7.48584ZM2.50391 6.0874C2.38355 6.30869 2.27371 6.53652 2.1748 6.77002L2.03516 7.12354C2.12279 6.88454 2.22134 6.65078 2.33105 6.42334L2.50391 6.0874ZM16.2275 6.0874C16.3477 6.30846 16.4578 6.53579 16.5566 6.76904L16.6963 7.12354C16.6087 6.88485 16.51 6.65149 16.4004 6.42432L16.2275 6.0874ZM5.00488 3.33447C4.27804 3.82593 3.63816 4.4367 3.11328 5.13818L2.89551 5.44385C3.38679 4.71709 3.99692 4.07703 4.69824 3.55225L5.00488 3.33447ZM12.4014 2.61377C13.6849 3.15736 14.7935 4.03518 15.6182 5.13721L15.8359 5.44385C15.0639 4.302 13.9977 3.37458 12.7471 2.771L12.4014 2.61377ZM7.79492 2.15869C7.16041 2.28885 6.55391 2.49665 5.98535 2.771L5.64844 2.94287C6.20123 2.64231 6.79409 2.40618 7.41699 2.24561L7.79492 2.15869ZM10.5527 2.09033C10.682 2.11013 10.8104 2.13262 10.9375 2.15869L11.3145 2.24561C11.1897 2.21343 11.0636 2.18476 10.9365 2.15869L10.5527 2.09033ZM8.96484 2.01025C8.83211 2.017 8.70026 2.0272 8.56934 2.04053L8.17871 2.09033C8.3076 2.0706 8.43749 2.05386 8.56836 2.04053L8.96484 2.01025Z" fill="#042656" stroke="#042656" stroke-width="1.17073"/>
    <path d="M7.02439 17.4146H6.2439C5.9239 17.4146 5.65853 17.1492 5.65853 16.8292C5.65853 16.5092 5.90829 16.2517 6.22829 16.2438C5.00292 12.0604 5.00292 7.54921 6.22829 3.3658C5.90829 3.358 5.65853 3.10043 5.65853 2.78043C5.65853 2.46043 5.9239 2.19507 6.2439 2.19507H7.02439C7.2117 2.19507 7.39122 2.28873 7.50048 2.43702C7.60975 2.59312 7.64097 2.78824 7.57853 2.96775C6.11122 7.37751 6.11122 12.2321 7.57853 16.6497C7.64097 16.8292 7.60975 17.0243 7.50048 17.1804C7.39122 17.3209 7.2117 17.4146 7.02439 17.4146Z" fill="#042656"/>
    <path d="M11.7073 17.4146C11.6449 17.4146 11.5824 17.4068 11.52 17.3834C11.2156 17.2819 11.0439 16.9463 11.1532 16.6419C12.6205 12.2322 12.6205 7.37753 11.1532 2.95997C11.0517 2.65558 11.2156 2.31997 11.52 2.21851C11.8322 2.11705 12.16 2.28095 12.2615 2.58534C13.8146 7.23705 13.8146 12.357 12.2615 17.0009C12.1834 17.2585 11.9493 17.4146 11.7073 17.4146Z" fill="#042656"/>
    <path d="M9.36586 13.8633C7.1883 13.8633 5.01854 13.559 2.92684 12.9424C2.91903 13.2546 2.66147 13.5121 2.34147 13.5121C2.02147 13.5121 1.7561 13.2468 1.7561 12.9268V12.1463C1.7561 11.959 1.84976 11.7794 1.99805 11.6702C2.15415 11.5609 2.34927 11.5297 2.52879 11.5921C6.93854 13.0594 11.801 13.0594 16.2107 11.5921C16.3902 11.5297 16.5854 11.5609 16.7415 11.6702C16.8976 11.7794 16.9834 11.959 16.9834 12.1463V12.9268C16.9834 13.2468 16.7181 13.5121 16.3981 13.5121C16.0781 13.5121 15.8205 13.2624 15.8127 12.9424C13.7132 13.559 11.5434 13.8633 9.36586 13.8633Z" fill="#042656"/>
    <path d="M16.3903 8.04865C16.3278 8.04865 16.2654 8.04085 16.2029 8.01743C11.7932 6.55012 6.93075 6.55012 2.52099 8.01743C2.2088 8.1189 1.88099 7.95499 1.77953 7.6506C1.68587 7.33841 1.84977 7.0106 2.15416 6.90914C6.80587 5.35597 11.9259 5.35597 16.5698 6.90914C16.8742 7.0106 17.0459 7.34621 16.9366 7.6506C16.8664 7.89256 16.6322 8.04865 16.3903 8.04865Z" fill="#042656"/>
</svg>
