<svg width="19" height="20" viewBox="0 0 19 20" fill="none" xmlns="http://www.w3.org/2000/svg">
    <path d="M5.46387 1.87756C4.32838 1.87756 3.34056 2.24795 2.63574 2.95276C1.93093 3.65757 1.56055 4.6454 1.56055 5.78088C1.56055 4.57254 1.96449 3.60643 2.62695 2.94397C3.28941 2.28151 4.25552 1.87756 5.46387 1.87756ZM13.2686 1.87756C14.4768 1.87763 15.4431 2.28156 16.1055 2.94397C16.7677 3.60642 17.1709 4.57277 17.1709 5.78088C17.1709 4.6454 16.8005 3.65757 16.0957 2.95276C15.391 2.24807 14.4039 1.87763 13.2686 1.87756Z" fill="#042656" stroke="#042656" stroke-width="1.17073"/>
    <path d="M13.2683 18.0731H5.46339C2.77851 18.0731 0.975586 16.2702 0.975586 13.5853V12.0243C0.975586 11.7043 1.24095 11.439 1.56095 11.439C1.88095 11.439 2.14632 11.7043 2.14632 12.0243V13.5853C2.14632 15.599 3.44973 16.9024 5.46339 16.9024H13.2683C15.2819 16.9024 16.5853 15.599 16.5853 13.5853V12.0243C16.5853 11.7043 16.8507 11.439 17.1707 11.439C17.4907 11.439 17.7561 11.7043 17.7561 12.0243V13.5853C17.7561 16.2702 15.9531 18.0731 13.2683 18.0731Z" fill="#042656"/>
    <path d="M17.1707 10.2683H1.56095C1.24095 10.2683 0.975586 10.0029 0.975586 9.6829C0.975586 9.3629 1.24095 9.09753 1.56095 9.09753H17.1707C17.4907 9.09753 17.7561 9.3629 17.7561 9.6829C17.7561 10.0029 17.4907 10.2683 17.1707 10.2683Z" fill="#042656"/>
</svg>
