<svg width="19" height="20" viewBox="0 0 19 20" fill="none" xmlns="http://www.w3.org/2000/svg">
    <path d="M2.12988 16.6438C2.19359 16.733 2.26365 16.8184 2.34277 16.8977C2.4191 16.9742 2.50133 17.0416 2.58691 17.1038C2.49721 17.0409 2.41557 16.9744 2.34277 16.9016C2.26623 16.8251 2.19544 16.7391 2.12988 16.6438ZM16.5967 16.6497C16.5323 16.7424 16.4635 16.8268 16.3887 16.9016C16.3157 16.9746 16.2335 17.0408 16.1436 17.1038C16.2294 17.0415 16.3121 16.9744 16.3887 16.8977C16.4659 16.8203 16.5341 16.7365 16.5967 16.6497ZM2.59473 8.88989C2.50607 8.95358 2.42157 9.02382 2.34277 9.10278C2.26579 9.17993 2.19713 9.26236 2.13477 9.34888C2.19894 9.25648 2.26817 9.17348 2.34277 9.09888C2.41786 9.02379 2.50161 8.95441 2.59473 8.88989ZM16.1357 8.88989C16.2291 8.95454 16.3134 9.02362 16.3887 9.09888C16.4616 9.17177 16.5289 9.25316 16.5918 9.34302C16.5306 9.25878 16.4638 9.17808 16.3887 9.10278C16.3096 9.0236 16.2247 8.95372 16.1357 8.88989Z" fill="#042656" stroke="#042656" stroke-width="1.17073"/>
    <path d="M4.6829 8.90243C4.3629 8.90243 4.09753 8.63706 4.09753 8.31706V6.75609C4.09753 4.49267 4.64388 1.48779 9.36583 1.48779C12.8624 1.48779 14.6341 2.99413 14.6341 5.9756C14.6341 6.2956 14.3688 6.56096 14.0488 6.56096C13.7288 6.56096 13.4634 6.2956 13.4634 5.9756C13.4634 4.43023 12.9951 2.65852 9.36583 2.65852C5.9629 2.65852 5.26827 4.29755 5.26827 6.75609V8.31706C5.26827 8.63706 5.0029 8.90243 4.6829 8.90243Z" fill="#042656"/>
    <path d="M9.36587 15.5365C7.9688 15.5365 6.82928 14.397 6.82928 13C6.82928 11.6029 7.9688 10.4634 9.36587 10.4634C10.7629 10.4634 11.9025 11.6029 11.9025 13C11.9025 14.397 10.7629 15.5365 9.36587 15.5365ZM9.36587 11.6341C8.6166 11.6341 8.00002 12.2507 8.00002 13C8.00002 13.7492 8.6166 14.3658 9.36587 14.3658C10.1151 14.3658 10.7317 13.7492 10.7317 13C10.7317 12.2507 10.1151 11.6341 9.36587 11.6341Z" fill="#042656"/>
</svg>
