<svg width="19" height="20" viewBox="0 0 19 20" fill="none" xmlns="http://www.w3.org/2000/svg">
    <path d="M7.75684 16.2389C7.71705 16.1855 7.67906 16.1308 7.64258 16.0748C7.67936 16.1313 7.7174 16.186 7.75684 16.2389ZM7.75684 16.2389C7.78486 16.2765 7.8144 16.3125 7.84375 16.3483C7.81424 16.3122 7.78468 16.2762 7.75684 16.2389ZM7.28613 15.361C7.14563 14.9877 7.04295 14.5589 6.98047 14.067L6.95117 13.8033V13.8024L6.95703 13.8082C7.01023 14.3806 7.11366 14.9006 7.28613 15.361ZM7.28613 15.361C7.3039 15.4081 7.32282 15.4542 7.3418 15.4996C7.32275 15.4539 7.30372 15.4079 7.28613 15.361ZM11.8008 17.6989H11.793C11.632 17.6988 11.4762 17.6942 11.3252 17.6881C11.4801 17.6939 11.6386 17.6989 11.8008 17.6989ZM12.418 17.6852C12.2555 17.6925 12.0873 17.6976 11.9131 17.6979C12.0854 17.6977 12.2536 17.692 12.418 17.6852ZM11.2197 17.6842C11.1065 17.6785 10.9963 17.67 10.8887 17.6608C10.9971 17.6695 11.1073 17.6789 11.2197 17.6842ZM8.26562 16.7692C8.26381 16.7677 8.26158 16.7667 8.25977 16.7653C8.25281 16.7596 8.24616 16.7534 8.23926 16.7477C8.24793 16.755 8.25685 16.7619 8.26562 16.7692ZM8.13477 16.6569C8.11575 16.6395 8.09769 16.6211 8.0791 16.6031C8.09758 16.6211 8.11576 16.6393 8.13477 16.6569ZM7.48535 15.8043C7.47562 15.7858 7.46555 15.7675 7.45605 15.7487C7.46552 15.7674 7.47559 15.7858 7.48535 15.8043ZM7.4082 15.649C7.39478 15.6204 7.38106 15.5916 7.36816 15.5621C7.38099 15.5915 7.39474 15.6202 7.4082 15.649ZM8.29688 3.74377C7.44487 4.42882 7.0717 5.46786 6.95801 6.77893C6.95677 6.78878 6.95242 6.79357 6.9502 6.79651H6.94629C6.94577 6.79517 6.94428 6.79372 6.94434 6.79163C7.0697 5.33644 7.51556 4.38752 8.24121 3.78674C8.29933 3.73864 8.36078 3.69274 8.42383 3.64807C8.38084 3.67916 8.33818 3.71057 8.29688 3.74377ZM15.5049 3.82581C15.5218 3.84049 15.5372 3.85671 15.5537 3.8717C15.5372 3.85665 15.5217 3.84048 15.5049 3.82581ZM15.3477 3.69885C15.3707 3.71626 15.3927 3.73466 15.415 3.75256C15.3927 3.7345 15.3705 3.71629 15.3477 3.69885ZM11.793 2.83752H11.8008C11.6372 2.83753 11.4774 2.84137 11.3213 2.84729C11.4735 2.84106 11.6307 2.83753 11.793 2.83752ZM10.8604 2.87659C10.9769 2.86623 11.0966 2.85744 11.2197 2.8512C11.0975 2.85696 10.9778 2.86673 10.8604 2.87659ZM11.9131 2.83752C12.0873 2.83777 12.2555 2.84293 12.418 2.85022C12.2536 2.84342 12.0854 2.83765 11.9131 2.83752ZM7.60254 16.0094C7.58755 15.9852 7.57213 15.961 7.55762 15.9362C7.57209 15.9609 7.58749 15.9851 7.60254 16.0094Z" fill="#C33025" stroke="#C33025" stroke-width="1.17073"/>
    <path d="M11.7073 10.8536H2.82536C2.50536 10.8536 2.23999 10.5882 2.23999 10.2682C2.23999 9.94823 2.50536 9.68286 2.82536 9.68286H11.7073C12.0273 9.68286 12.2927 9.94823 12.2927 10.2682C12.2927 10.5882 12.0273 10.8536 11.7073 10.8536Z" fill="#C33025"/>
    <path d="M4.56585 13.4681C4.41755 13.4681 4.26926 13.4135 4.15219 13.2964L1.53755 10.6818C1.31121 10.4554 1.31121 10.0808 1.53755 9.85446L4.15219 7.23982C4.37853 7.01348 4.75316 7.01348 4.97951 7.23982C5.20585 7.46617 5.20585 7.8408 4.97951 8.06714L2.77853 10.2681L4.97951 12.4691C5.20585 12.6954 5.20585 13.0701 4.97951 13.2964C4.87024 13.4135 4.71414 13.4681 4.56585 13.4681Z" fill="#C33025"/>
</svg>
