<svg width="19" height="20" viewBox="0 0 19 20" fill="none" xmlns="http://www.w3.org/2000/svg">
    <mask id="path-1-inside-1_46_213" fill="white">
        <path d="M9.11607 12.5814C8.96778 12.5814 8.81948 12.5267 8.70241 12.4097C8.47607 12.1833 8.47607 11.8087 8.70241 11.5824L10.2868 9.99797L8.70241 8.41358C8.47607 8.18724 8.47607 7.8126 8.70241 7.58626C8.92875 7.35992 9.30339 7.35992 9.52973 7.58626L11.5278 9.58431C11.7541 9.81065 11.7541 10.1853 11.5278 10.4116L9.52973 12.4097C9.42046 12.5267 9.26436 12.5814 9.11607 12.5814Z"/>
    </mask>
    <path d="M9.11607 12.5814C8.96778 12.5814 8.81948 12.5267 8.70241 12.4097C8.47607 12.1833 8.47607 11.8087 8.70241 11.5824L10.2868 9.99797L8.70241 8.41358C8.47607 8.18724 8.47607 7.8126 8.70241 7.58626C8.92875 7.35992 9.30339 7.35992 9.52973 7.58626L11.5278 9.58431C11.7541 9.81065 11.7541 10.1853 11.5278 10.4116L9.52973 12.4097C9.42046 12.5267 9.26436 12.5814 9.11607 12.5814Z" fill="#042656"/>
    <path d="M8.70241 11.5824L7.87458 10.7545L7.87458 10.7545L8.70241 11.5824ZM10.2868 9.99797L11.1146 10.8258L11.9425 9.99797L11.1146 9.17014L10.2868 9.99797ZM8.70241 8.41358L9.53024 7.58574L8.70241 8.41358ZM9.52973 7.58626L8.70189 8.41409L8.7019 8.41409L9.52973 7.58626ZM11.5278 9.58431L12.3556 8.75648L12.3556 8.75648L11.5278 9.58431ZM11.5278 10.4116L12.3556 11.2395L12.3556 11.2395L11.5278 10.4116ZM9.52973 12.4097L8.7019 11.5818L8.68763 11.5961L8.67386 11.6109L9.52973 12.4097ZM9.11607 12.5814V11.4106C9.26152 11.4106 9.41619 11.4678 9.53024 11.5818L8.70241 12.4097L7.87458 13.2375C8.22278 13.5857 8.67403 13.7521 9.11607 13.7521V12.5814ZM8.70241 12.4097L9.53024 11.5818C9.7611 11.8127 9.7611 12.1793 9.53024 12.4102L8.70241 11.5824L7.87458 10.7545C7.19104 11.4381 7.19104 12.554 7.87458 13.2375L8.70241 12.4097ZM8.70241 11.5824L9.53024 12.4102L11.1146 10.8258L10.2868 9.99797L9.45897 9.17013L7.87458 10.7545L8.70241 11.5824ZM10.2868 9.99797L11.1146 9.17014L9.53024 7.58574L8.70241 8.41358L7.87458 9.24141L9.45897 10.8258L10.2868 9.99797ZM8.70241 8.41358L9.53024 7.58574C9.7611 7.8166 9.7611 8.18323 9.53024 8.41409L8.70241 7.58626L7.87458 6.75843C7.19104 7.44197 7.19104 8.55787 7.87458 9.24141L8.70241 8.41358ZM8.70241 7.58626L9.53024 8.41409C9.29938 8.64495 8.93275 8.64495 8.70189 8.41409L9.52973 7.58626L10.3576 6.75843C9.67402 6.07489 8.55812 6.07489 7.87458 6.75843L8.70241 7.58626ZM9.52973 7.58626L8.7019 8.41409L10.6999 10.4121L11.5278 9.58431L12.3556 8.75648L10.3576 6.75843L9.52973 7.58626ZM11.5278 9.58431L10.6999 10.4121C10.4691 10.1813 10.4691 9.81465 10.6999 9.58379L11.5278 10.4116L12.3556 11.2395C13.0391 10.5559 13.0391 9.44002 12.3556 8.75648L11.5278 9.58431ZM11.5278 10.4116L10.6999 9.58379L8.7019 11.5818L9.52973 12.4097L10.3576 13.2375L12.3556 11.2395L11.5278 10.4116ZM9.52973 12.4097L8.67386 11.6109C8.82157 11.4526 8.99593 11.4106 9.11607 11.4106V12.5814V13.7521C9.53279 13.7521 10.0194 13.6009 10.3856 13.2085L9.52973 12.4097Z" fill="#042656" mask="url(#path-1-inside-1_46_213)"/>
    <path d="M11.0595 10.5835H3.12193C2.80193 10.5835 2.53656 10.3181 2.53656 9.99809C2.53656 9.67809 2.80193 9.41272 3.12193 9.41272H11.0595C11.3795 9.41272 11.6449 9.67809 11.6449 9.99809C11.6449 10.3181 11.3795 10.5835 11.0595 10.5835Z" fill="#042656"/>
    <path d="M9.36588 16.7805C9.04588 16.7805 8.78052 16.5151 8.78052 16.1951C8.78052 15.8751 9.04588 15.6098 9.36588 15.6098C12.6986 15.6098 15.0244 13.2839 15.0244 9.95122C15.0244 6.61853 12.6986 4.29268 9.36588 4.29268C9.04588 4.29268 8.78052 4.02731 8.78052 3.70731C8.78052 3.38731 9.04588 3.12195 9.36588 3.12195C13.3854 3.12195 16.1952 5.9317 16.1952 9.95122C16.1952 13.9707 13.3854 16.7805 9.36588 16.7805Z" fill="#042656"/>
</svg>
