<svg width="19" height="19" viewBox="0 0 19 19" fill="none" xmlns="http://www.w3.org/2000/svg">
    <mask id="path-1-inside-1_46_7" fill="white">
        <path d="M9.36588 8.40586C9.04588 8.40586 8.78052 8.1405 8.78052 7.8205V5.22147C8.78052 4.90147 9.04588 4.63611 9.36588 4.63611C9.68588 4.63611 9.95125 4.90147 9.95125 5.22147V7.8205C9.95125 8.1483 9.68588 8.40586 9.36588 8.40586Z"/>
    </mask>
    <path d="M9.36588 8.40586C9.04588 8.40586 8.78052 8.1405 8.78052 7.8205V5.22147C8.78052 4.90147 9.04588 4.63611 9.36588 4.63611C9.68588 4.63611 9.95125 4.90147 9.95125 5.22147V7.8205C9.95125 8.1483 9.68588 8.40586 9.36588 8.40586Z" fill="#042656"/>
    <path d="M9.36588 8.40586V7.23513C9.69246 7.23513 9.95125 7.49392 9.95125 7.8205H8.78052H7.60979C7.60979 8.78708 8.39931 9.5766 9.36588 9.5766V8.40586ZM8.78052 7.8205H9.95125V5.22147H8.78052H7.60979V7.8205H8.78052ZM8.78052 5.22147H9.95125C9.95125 5.54805 9.69246 5.80684 9.36588 5.80684V4.63611V3.46538C8.39931 3.46538 7.60979 4.2549 7.60979 5.22147H8.78052ZM9.36588 4.63611V5.80684C9.03931 5.80684 8.78052 5.54805 8.78052 5.22147H9.95125H11.122C11.122 4.2549 10.3325 3.46538 9.36588 3.46538V4.63611ZM9.95125 5.22147H8.78052V7.8205H9.95125H11.122V5.22147H9.95125ZM9.95125 7.8205H8.78052C8.78052 7.49158 9.0495 7.23513 9.36588 7.23513V8.40586V9.5766C10.3223 9.5766 11.122 8.80503 11.122 7.8205H9.95125Z" fill="#042656" mask="url(#path-1-inside-1_46_7)"/>
    <path d="M9.38147 16.078C7.36781 16.078 5.36196 15.758 3.44977 15.118C2.73952 14.8839 2.20098 14.3766 1.96684 13.7366C1.73269 13.0966 1.81074 12.3629 2.19318 11.7229L3.1844 10.0683C3.40294 9.70144 3.59806 9.01461 3.59806 8.58534V6.94632C3.59806 3.75412 6.18928 1.1629 9.38147 1.1629C12.5737 1.1629 15.1649 3.75412 15.1649 6.94632V8.58534C15.1649 9.00681 15.36 9.70144 15.5785 10.0683L16.5698 11.7229C16.9366 12.3317 16.999 13.0575 16.7571 13.721C16.5151 14.3844 15.9844 14.8917 15.3132 15.118C13.401 15.7658 11.3951 16.078 9.38147 16.078ZM9.38147 2.34144C6.83708 2.34144 4.76879 4.40973 4.76879 6.95412V8.59315C4.76879 9.22534 4.51903 10.1385 4.19123 10.677L3.20001 12.3395C2.99708 12.6751 2.95025 13.0341 3.06733 13.3463C3.1844 13.6585 3.44977 13.8927 3.8244 14.0175C7.41464 15.2117 11.3639 15.2117 14.9542 14.0175C15.2898 13.9083 15.5473 13.6585 15.6644 13.3307C15.7893 13.0029 15.7503 12.6439 15.5707 12.3395L14.5795 10.6849C14.2517 10.1463 14.002 9.23315 14.002 8.60095V6.96193C13.9942 4.40973 11.9259 2.34144 9.38147 2.34144Z" fill="#042656"/>
    <path d="M9.36585 18.0683C8.53073 18.0683 7.71121 17.7249 7.11804 17.1317C6.52487 16.5385 6.18146 15.719 6.18146 14.8839H7.35219C7.35219 15.4146 7.57073 15.9298 7.94536 16.3044C8.31999 16.679 8.83512 16.8976 9.36585 16.8976C10.4741 16.8976 11.3795 15.9922 11.3795 14.8839H12.5502C12.5502 16.64 11.1219 18.0683 9.36585 18.0683Z" fill="#042656"/>
</svg>
