<svg width="36" height="36" viewBox="0 0 36 36" fill="none" xmlns="http://www.w3.org/2000/svg">
    <rect width="36" height="36" rx="10" fill="#F9F9F9"/>
    <path d="M17.8262 8L17.8262 7.25H17.8262V8ZM23.9131 14.0869H24.6631V14.0869L23.9131 14.0869ZM25.6523 20.8848H26.4023V20.8847L25.6523 20.8848ZM22.9189 24.083L23.022 24.8259L23.022 24.8259L22.9189 24.083ZM17.8262 24.5215V25.2715H17.8262L17.8262 24.5215ZM12.7324 24.083L12.6293 24.8259L12.6294 24.8259L12.7324 24.083ZM10 20.8848L9.25 20.8847V20.8848H10ZM11.7393 14.0869L10.9893 14.0869V14.0869H11.7393ZM10.4664 19.1864L9.8222 18.8024L10.4664 19.1864ZM17.8262 8L17.8262 8.75C20.7736 8.75004 23.1631 11.1395 23.1631 14.0869L23.9131 14.0869L24.6631 14.0869C24.6631 10.311 21.6021 7.25006 17.8262 7.25L17.8262 8ZM23.9131 14.0869H23.1631V16.1779H23.9131H24.6631V14.0869H23.9131ZM25.1858 19.1864L24.5416 19.5704C24.7706 19.9545 24.9023 20.4032 24.9023 20.8848L25.6523 20.8848L26.4023 20.8847C26.4023 20.1254 26.1936 19.4123 25.83 18.8023L25.1858 19.1864ZM25.6523 20.8848H24.9023C24.9023 22.1307 24.0157 23.1737 22.8159 23.3401L22.9189 24.083L23.022 24.8259C24.9976 24.552 26.4023 22.8446 26.4023 20.8848H25.6523ZM22.9189 24.083L22.8159 23.3401C21.2454 23.5579 19.3181 23.7715 17.8262 23.7715L17.8262 24.5215L17.8262 25.2715C19.4268 25.2715 21.4392 25.0454 23.022 24.8259L22.9189 24.083ZM17.8262 24.5215V23.7715C16.3342 23.7715 14.406 23.5579 12.8354 23.3401L12.7324 24.083L12.6294 24.8259C14.2122 25.0454 16.2255 25.2715 17.8262 25.2715V24.5215ZM12.7324 24.083L12.8356 23.3401C11.6361 23.1736 10.75 22.1308 10.75 20.8848H10H9.25C9.25 22.8442 10.6538 24.5516 12.6293 24.8259L12.7324 24.083ZM10 20.8848L10.75 20.8848C10.7501 20.4032 10.8818 19.9545 11.1107 19.5704L10.4664 19.1864L9.8222 18.8024C9.45868 19.4123 9.25008 20.1254 9.25 20.8847L10 20.8848ZM11.7393 16.1778H12.4893V14.0869H11.7393H10.9893V16.1778H11.7393ZM11.7393 14.0869L12.4893 14.0869C12.4893 11.1394 14.8787 8.75 17.8262 8.75V8V7.25C14.0502 7.25 10.9893 10.311 10.9893 14.0869L11.7393 14.0869ZM10.4664 19.1864L11.1107 19.5704C11.3653 19.1433 11.7211 18.6043 11.9852 18.0752C12.2592 17.5264 12.4893 16.8908 12.4893 16.1778H11.7393H10.9893C10.9893 16.5654 10.8647 16.9614 10.6431 17.4054C10.4116 17.8691 10.1311 18.2841 9.8222 18.8024L10.4664 19.1864ZM23.9131 16.1779H23.1631C23.1631 16.8908 23.3931 17.5264 23.6671 18.0753C23.9312 18.6044 24.287 19.1433 24.5416 19.5704L25.1858 19.1864L25.83 18.8023C25.5212 18.2841 25.2406 17.8691 25.0092 17.4054C24.7876 16.9615 24.6631 16.5655 24.6631 16.1779H23.9131Z" fill="black"/>
    <path d="M20 26.834C19.5326 27.5369 18.7335 28.0002 17.8261 28.0002C16.9187 28.0002 16.1195 27.5369 15.6522 26.834" stroke="black" stroke-width="1.5" stroke-linecap="round"/>
</svg>
