<svg width="19" height="19" viewBox="0 0 19 19" fill="none" xmlns="http://www.w3.org/2000/svg">
    <mask id="path-1-inside-1_308_1633" fill="white">
        <path d="M12.4563 16.6401C12.308 16.6401 12.1597 16.5855 12.0426 16.4684L10.8563 15.282C10.6299 15.0557 10.6299 14.6811 10.8563 14.4547C11.0826 14.2284 11.4573 14.2284 11.6836 14.4547L12.4563 15.2274L14.4153 13.2684C14.6416 13.042 15.0163 13.042 15.2426 13.2684C15.469 13.4947 15.469 13.8694 15.2426 14.0957L12.8699 16.4684C12.7529 16.5855 12.6046 16.6401 12.4563 16.6401Z"/>
    </mask>
    <path d="M12.4563 16.6401C12.308 16.6401 12.1597 16.5855 12.0426 16.4684L10.8563 15.282C10.6299 15.0557 10.6299 14.6811 10.8563 14.4547C11.0826 14.2284 11.4573 14.2284 11.6836 14.4547L12.4563 15.2274L14.4153 13.2684C14.6416 13.042 15.0163 13.042 15.2426 13.2684C15.469 13.4947 15.469 13.8694 15.2426 14.0957L12.8699 16.4684C12.7529 16.5855 12.6046 16.6401 12.4563 16.6401Z" fill="#042656"/>
    <path d="M12.0426 16.4684L11.2148 17.2962L11.2148 17.2962L12.0426 16.4684ZM10.8563 15.282L11.6841 14.4542L11.6841 14.4542L10.8563 15.282ZM12.4563 15.2274L11.6284 16.0552L12.4563 16.8831L13.2841 16.0552L12.4563 15.2274ZM14.4153 13.2684L13.5875 12.4406L13.5875 12.4406L14.4153 13.2684ZM12.4563 16.6401V15.4694C12.6017 15.4694 12.7564 15.5265 12.8705 15.6406L12.0426 16.4684L11.2148 17.2962C11.563 17.6444 12.0142 17.8108 12.4563 17.8108V16.6401ZM12.0426 16.4684L12.8705 15.6406L11.6841 14.4542L10.8563 15.282L10.0284 16.1099L11.2148 17.2962L12.0426 16.4684ZM10.8563 15.282L11.6841 14.4542C11.915 14.6851 11.915 15.0517 11.6841 15.2826L10.8563 14.4547L10.0284 13.6269C9.34491 14.3104 9.34491 15.4263 10.0284 16.1099L10.8563 15.282ZM10.8563 14.4547L11.6841 15.2826C11.4533 15.5134 11.0866 15.5134 10.8558 15.2826L11.6836 14.4547L12.5114 13.6269C11.8279 12.9434 10.712 12.9434 10.0284 13.6269L10.8563 14.4547ZM11.6836 14.4547L10.8558 15.2826L11.6284 16.0552L12.4563 15.2274L13.2841 14.3996L12.5114 13.6269L11.6836 14.4547ZM12.4563 15.2274L13.2841 16.0552L15.2431 14.0962L14.4153 13.2684L13.5875 12.4406L11.6284 14.3996L12.4563 15.2274ZM14.4153 13.2684L15.2431 14.0962C15.0123 14.3271 14.6456 14.3271 14.4148 14.0962L15.2426 13.2684L16.0705 12.4406C15.3869 11.757 14.271 11.757 13.5875 12.4406L14.4153 13.2684ZM15.2426 13.2684L14.4148 14.0962C14.1839 13.8654 14.1839 13.4987 14.4148 13.2679L15.2426 14.0957L16.0705 14.9235C16.754 14.24 16.754 13.1241 16.0705 12.4406L15.2426 13.2684ZM15.2426 14.0957L14.4148 13.2679L12.0421 15.6406L12.8699 16.4684L13.6978 17.2962L16.0705 14.9235L15.2426 14.0957ZM12.8699 16.4684L12.0421 15.6406C12.1562 15.5265 12.3108 15.4694 12.4563 15.4694V16.6401V17.8108C12.8983 17.8108 13.3496 17.6444 13.6978 17.2962L12.8699 16.4684Z" fill="#042656" mask="url(#path-1-inside-1_308_1633)"/>
    <path d="M12.8184 5.20117C12.7313 6.99268 11.3125 8.41088 9.50879 8.4834H9.45801C9.40082 8.47773 9.34396 8.47977 9.29004 8.4834C9.15569 8.47869 9.02382 8.46647 8.89453 8.44824C9.00739 8.46281 9.12203 8.47208 9.23828 8.47559L9.2959 8.47754L9.33594 8.4707C9.34107 8.47049 9.34919 8.4707 9.36035 8.4707C9.3882 8.4707 9.42404 8.47177 9.46094 8.47461L9.49707 8.47754L9.53223 8.47559C11.3823 8.39107 12.8192 6.87851 12.8232 5.02637L12.8184 5.20117ZM8.86523 8.44336C8.82958 8.43804 8.79402 8.43307 8.75879 8.42676C8.79411 8.43275 8.82954 8.43844 8.86523 8.44336ZM6.36816 3.27832C6.06546 3.79832 5.90242 4.38997 5.90039 5.00684C5.89863 4.39039 6.06124 3.79865 6.36816 3.27832ZM11.3154 2.16992C11.5882 2.35759 11.833 2.58299 12.042 2.83887C11.8329 2.58324 11.5883 2.35755 11.3154 2.16992ZM9.88379 1.60059C10.3785 1.67648 10.839 1.85841 11.2422 2.12109C10.8855 1.88881 10.4839 1.72027 10.0537 1.63184L9.88379 1.60059ZM8.9873 1.58105C8.85106 1.59556 8.71686 1.61831 8.58496 1.64844C8.71696 1.61816 8.8512 1.59559 8.9873 1.58105ZM5.9043 5.19336C5.95033 6.13301 6.36591 6.97358 7.01172 7.56934C6.32067 6.93734 5.9004 6.03279 5.90039 5.02637L5.9043 5.19336Z" fill="#042656" stroke="#042656" stroke-width="1.17073"/>
    <path d="M5.44336 15.9397C6.50315 16.649 7.89435 17.0149 9.35059 17.0149C9.35055 17.0159 9.3503 17.0171 9.34961 17.0188C9.3491 17.02 9.34743 17.0206 9.34668 17.0217C7.94736 17.0198 6.64464 16.6776 5.64355 16.0686L5.44629 15.9436V15.9426L5.44336 15.9407V15.9397ZM4.98828 15.5891C4.55712 15.2045 4.2755 14.7748 4.13477 14.3284C4.28443 14.7998 4.58409 15.2272 4.98828 15.5891ZM4.125 14.2961C4.11421 14.2601 4.10467 14.224 4.0957 14.1877C4.10477 14.2241 4.11419 14.2603 4.125 14.2961ZM4.05273 13.9807C4.04577 13.9346 4.0412 13.8883 4.03711 13.842C4.04125 13.8885 4.04575 13.9349 4.05273 13.9807ZM4.02734 13.6428C4.02735 13.5894 4.02935 13.536 4.0332 13.4827C4.02941 13.5356 4.02735 13.589 4.02734 13.6428ZM4.06445 13.2463C4.07011 13.2151 4.07502 13.1837 4.08203 13.1526C4.07506 13.1836 4.07012 13.215 4.06445 13.2463ZM4.10254 13.0754C4.10834 13.0533 4.11362 13.0311 4.12012 13.009C4.11363 13.031 4.10836 13.0533 4.10254 13.0754ZM4.15137 12.9153C4.1598 12.8906 4.16745 12.8656 4.17676 12.8411C4.16746 12.8655 4.15984 12.8905 4.15137 12.9153ZM4.2002 12.7825C4.21372 12.7495 4.22803 12.7166 4.24316 12.6838C4.22805 12.7164 4.21381 12.7493 4.2002 12.7825ZM4.2832 12.6008C4.28964 12.5881 4.29605 12.5754 4.30273 12.5627C4.29604 12.5754 4.28967 12.5881 4.2832 12.6008ZM4.37012 12.4446C4.38004 12.428 4.39003 12.4113 4.40039 12.3948C4.39003 12.4113 4.38008 12.4279 4.37012 12.4446ZM4.44043 12.3323C4.46087 12.3015 4.48192 12.2709 4.50391 12.2405C4.48199 12.2707 4.46099 12.3014 4.44043 12.3323ZM5.13281 11.5881C4.89914 11.7764 4.69484 11.9844 4.52734 12.2092C4.68915 11.9917 4.89038 11.7831 5.13281 11.5881ZM9.35059 10.2864C10.7908 10.2864 12.2012 10.6551 13.252 11.3567H13.2529V11.3577C12.1634 10.6331 10.7394 10.2903 9.35059 10.2903C7.96041 10.2903 6.53429 10.6326 5.44434 11.3586L5.44531 11.3596L5.44629 11.3586C6.49729 10.6557 7.90906 10.2864 9.35059 10.2864ZM5.13086 15.7102C5.09012 15.6772 5.05111 15.6433 5.0127 15.6096C5.0513 15.6436 5.09044 15.6774 5.13086 15.7102ZM4.08105 14.1272C4.07131 14.0827 4.06269 14.0381 4.05566 13.9934C4.06277 14.0384 4.07129 14.0829 4.08105 14.1272Z" fill="#042656" stroke="#042656" stroke-width="1.17073"/>
</svg>
