<svg width="19" height="19" viewBox="0 0 19 19" fill="none" xmlns="http://www.w3.org/2000/svg">
    <mask id="path-1-inside-1_46_66" fill="white">
        <path d="M12.4567 16.64C12.3084 16.64 12.1601 16.5853 12.043 16.4683L10.8567 15.2819C10.6304 15.0556 10.6304 14.681 10.8567 14.4546C11.083 14.2283 11.4577 14.2283 11.684 14.4546L12.4567 15.2273L14.4157 13.2683C14.6421 13.0419 15.0167 13.0419 15.243 13.2683C15.4694 13.4946 15.4694 13.8692 15.243 14.0956L12.8704 16.4683C12.7533 16.5853 12.605 16.64 12.4567 16.64Z"/>
    </mask>
    <path d="M12.4567 16.64C12.3084 16.64 12.1601 16.5853 12.043 16.4683L10.8567 15.2819C10.6304 15.0556 10.6304 14.681 10.8567 14.4546C11.083 14.2283 11.4577 14.2283 11.684 14.4546L12.4567 15.2273L14.4157 13.2683C14.6421 13.0419 15.0167 13.0419 15.243 13.2683C15.4694 13.4946 15.4694 13.8692 15.243 14.0956L12.8704 16.4683C12.7533 16.5853 12.605 16.64 12.4567 16.64Z" fill="#042656"/>
    <path d="M12.043 16.4683L11.2152 17.2961L11.2152 17.2961L12.043 16.4683ZM10.8567 15.2819L11.6845 14.4541L11.6845 14.4541L10.8567 15.2819ZM12.4567 15.2273L11.6289 16.0551L12.4567 16.883L13.2845 16.0551L12.4567 15.2273ZM14.4157 13.2683L13.5879 12.4404L13.5879 12.4404L14.4157 13.2683ZM12.4567 16.64V15.4692C12.6022 15.4692 12.7568 15.5264 12.8709 15.6404L12.043 16.4683L11.2152 17.2961C11.5634 17.6443 12.0147 17.8107 12.4567 17.8107V16.64ZM12.043 16.4683L12.8709 15.6404L11.6845 14.4541L10.8567 15.2819L10.0289 16.1098L11.2152 17.2961L12.043 16.4683ZM10.8567 15.2819L11.6845 14.4541C11.9154 14.685 11.9154 15.0516 11.6845 15.2824L10.8567 14.4546L10.0289 13.6268C9.34533 14.3103 9.34533 15.4262 10.0289 16.1098L10.8567 15.2819ZM10.8567 14.4546L11.6845 15.2824C11.4537 15.5133 11.087 15.5133 10.8562 15.2824L11.684 14.4546L12.5119 13.6268C11.8283 12.9432 10.7124 12.9432 10.0289 13.6268L10.8567 14.4546ZM11.684 14.4546L10.8562 15.2824L11.6289 16.0551L12.4567 15.2273L13.2845 14.3995L12.5119 13.6268L11.684 14.4546ZM12.4567 15.2273L13.2845 16.0551L15.2436 14.0961L14.4157 13.2683L13.5879 12.4404L11.6289 14.3995L12.4567 15.2273ZM14.4157 13.2683L15.2436 14.0961C15.0127 14.327 14.6461 14.327 14.4152 14.0961L15.243 13.2683L16.0709 12.4404C15.3873 11.7569 14.2714 11.7569 13.5879 12.4404L14.4157 13.2683ZM15.243 13.2683L14.4152 14.0961C14.1844 13.8652 14.1844 13.4986 14.4152 13.2678L15.243 14.0956L16.0709 14.9234C16.7544 14.2399 16.7544 13.124 16.0709 12.4404L15.243 13.2683ZM15.243 14.0956L14.4152 13.2678L12.0425 15.6404L12.8704 16.4683L13.6982 17.2961L16.0709 14.9234L15.243 14.0956ZM12.8704 16.4683L12.0425 15.6404C12.1566 15.5264 12.3113 15.4692 12.4567 15.4692V16.64V17.8107C12.8987 17.8107 13.35 17.6443 13.6982 17.2961L12.8704 16.4683Z" fill="#042656" mask="url(#path-1-inside-1_46_66)"/>
    <path d="M12.819 5.20117C12.7319 6.99268 11.3132 8.41088 9.50946 8.4834H9.45868C9.40149 8.47773 9.34464 8.47977 9.29071 8.4834C9.15636 8.47869 9.02449 8.46647 8.8952 8.44824C9.00806 8.46281 9.1227 8.47208 9.23895 8.47559L9.29657 8.47754L9.33661 8.4707C9.34174 8.47049 9.34987 8.4707 9.36102 8.4707C9.38887 8.4707 9.42471 8.47177 9.46161 8.47461L9.49774 8.47754L9.5329 8.47559C11.383 8.39107 12.8199 6.87851 12.8239 5.02637L12.819 5.20117ZM8.86591 8.44336C8.83025 8.43804 8.79469 8.43307 8.75946 8.42676C8.79478 8.43275 8.83021 8.43844 8.86591 8.44336ZM6.36884 3.27832C6.06613 3.79832 5.90309 4.38997 5.90106 5.00684C5.8993 4.39039 6.06191 3.79865 6.36884 3.27832ZM11.3161 2.16992C11.5888 2.35759 11.8337 2.58299 12.0427 2.83887C11.8336 2.58324 11.5889 2.35755 11.3161 2.16992ZM9.88446 1.60059C10.3792 1.67648 10.8397 1.85841 11.2429 2.12109C10.8862 1.88881 10.4846 1.72027 10.0544 1.63184L9.88446 1.60059ZM8.98798 1.58105C8.85173 1.59556 8.71754 1.61831 8.58563 1.64844C8.71763 1.61816 8.85187 1.59559 8.98798 1.58105ZM5.90497 5.19336C5.951 6.13301 6.36658 6.97358 7.01239 7.56934C6.32134 6.93734 5.90108 6.03279 5.90106 5.02637L5.90497 5.19336Z" fill="#042656" stroke="#042656" stroke-width="1.17073"/>
    <path d="M5.44305 15.9398C6.50285 16.6491 7.89404 17.0149 9.35028 17.015C9.35025 17.016 9.35 17.0172 9.3493 17.0189C9.34879 17.0201 9.34713 17.0207 9.34637 17.0218C7.94705 17.0199 6.64433 16.6776 5.64325 16.0687L5.44598 15.9437V15.9427L5.44305 15.9407V15.9398ZM4.98798 15.5892C4.55681 15.2046 4.27519 14.7749 4.13446 14.3284C4.28412 14.7999 4.58379 15.2272 4.98798 15.5892ZM4.12469 14.2962C4.1139 14.2602 4.10436 14.224 4.0954 14.1878C4.10446 14.2241 4.11388 14.2604 4.12469 14.2962ZM4.05243 13.9808C4.04546 13.9347 4.0409 13.8884 4.0368 13.8421C4.04095 13.8886 4.04545 13.9349 4.05243 13.9808ZM4.02704 13.6429C4.02704 13.5894 4.02905 13.536 4.0329 13.4827C4.02911 13.5356 4.02704 13.589 4.02704 13.6429ZM4.06415 13.2464C4.06981 13.2152 4.07471 13.1837 4.08173 13.1526C4.07475 13.1836 4.06981 13.215 4.06415 13.2464ZM4.10223 13.0755C4.10804 13.0534 4.11332 13.0311 4.11981 13.0091C4.11333 13.0311 4.10806 13.0533 4.10223 13.0755ZM4.15106 12.9153C4.15949 12.8907 4.16714 12.8657 4.17645 12.8411C4.16715 12.8656 4.15953 12.8906 4.15106 12.9153ZM4.19989 12.7825C4.21342 12.7495 4.22772 12.7167 4.24286 12.6839C4.22774 12.7165 4.2135 12.7494 4.19989 12.7825ZM4.2829 12.6009C4.28934 12.5882 4.29574 12.5755 4.30243 12.5628C4.29574 12.5754 4.28937 12.5882 4.2829 12.6009ZM4.36981 12.4446C4.37974 12.428 4.38972 12.4114 4.40009 12.3948C4.38973 12.4113 4.37978 12.428 4.36981 12.4446ZM4.44012 12.3323C4.46056 12.3016 4.48162 12.2709 4.5036 12.2405C4.48169 12.2708 4.46068 12.3015 4.44012 12.3323ZM5.13251 11.5882C4.89883 11.7764 4.69454 11.9845 4.52704 12.2093C4.68884 11.9917 4.89008 11.7832 5.13251 11.5882ZM9.35028 10.2864C10.7904 10.2864 12.2009 10.6552 13.2516 11.3568H13.2526V11.3577C12.1631 10.6331 10.7391 10.2903 9.35028 10.2903C7.9601 10.2904 6.53398 10.6326 5.44403 11.3587L5.44501 11.3597L5.44598 11.3587C6.49699 10.6558 7.90875 10.2865 9.35028 10.2864ZM5.13055 15.7103C5.08982 15.6773 5.05081 15.6434 5.01239 15.6097C5.051 15.6437 5.09013 15.6775 5.13055 15.7103ZM4.08075 14.1273C4.071 14.0827 4.06238 14.0382 4.05536 13.9935C4.06247 14.0384 4.07098 14.083 4.08075 14.1273Z" fill="#042656" stroke="#042656" stroke-width="1.17073"/>
</svg>
