<svg width="19" height="19" viewBox="0 0 19 19" fill="none" xmlns="http://www.w3.org/2000/svg">
    <path d="M9.4613 8.60437L9.47302 8.60535H9.45837C9.43253 8.60278 9.40675 8.60097 9.38123 8.60046C9.40601 8.60097 9.43418 8.60228 9.4613 8.60437ZM9.35876 8.59949C9.35156 8.5995 9.34442 8.60128 9.33728 8.60144L9.34509 8.59949H9.35876ZM9.69177 8.59265C9.66061 8.59542 9.62942 8.59853 9.59802 8.60046C9.62942 8.59844 9.66062 8.5955 9.69177 8.59265ZM10.0336 8.54578C9.99701 8.55274 9.96018 8.55853 9.92322 8.56433C9.96016 8.55843 9.99704 8.55283 10.0336 8.54578ZM12.8168 5.43738C12.6846 6.9921 11.5495 8.24573 10.057 8.54089C11.5522 8.24147 12.6842 6.9828 12.8168 5.43738ZM5.93201 5.61316C5.97924 5.97009 6.07856 6.30967 6.22498 6.62292C6.07824 6.30937 5.97902 5.96983 5.93201 5.61316ZM6.05603 4.12C6.02215 4.22845 5.99424 4.33936 5.97107 4.45203L5.93982 4.62195C5.95739 4.50741 5.9806 4.39466 6.00916 4.28406L6.05603 4.12ZM11.015 2.10242C11.8007 2.5301 12.4046 3.25258 12.6752 4.12L12.7211 4.28406C12.4924 3.39979 11.9216 2.65045 11.1595 2.1864L11.015 2.10242ZM7.71619 2.10242C7.17625 2.39654 6.72271 2.83044 6.40369 3.35437L6.3197 3.4989C6.61369 2.95881 7.04666 2.50437 7.57068 2.18542L7.71619 2.10242ZM8.83923 1.72253C8.72464 1.74014 8.61202 1.76422 8.50134 1.79285L8.33728 1.83875C8.44544 1.805 8.55597 1.77689 8.66833 1.75378L8.83923 1.72253ZM9.89197 1.72253C10.0065 1.74011 10.1193 1.76331 10.2299 1.79187L10.3939 1.83875C10.2855 1.80487 10.1746 1.77695 10.0619 1.75378L9.89197 1.72253ZM9.85779 8.5741C9.80797 8.58095 9.75789 8.58697 9.7074 8.59167C9.75788 8.58683 9.808 8.58107 9.85779 8.5741Z" fill="#042656" stroke="#042656" stroke-width="1.17073"/>
    <path d="M9.49826 17.7219C7.9685 17.7219 6.43094 17.3317 5.26801 16.5512C4.18314 15.8331 3.58997 14.8497 3.58997 13.7804C3.58997 12.7112 4.18314 11.72 5.26801 10.9941C7.60948 9.44093 11.4026 9.44093 13.7285 10.9941C14.8056 11.7122 15.4066 12.6956 15.4066 13.7648C15.4066 14.8341 14.8134 15.8253 13.7285 16.5512C12.5578 17.3317 11.028 17.7219 9.49826 17.7219ZM5.91582 11.9775C5.16655 12.477 4.7607 13.117 4.7607 13.7882C4.7607 14.4517 5.17436 15.0917 5.91582 15.5834C7.85923 16.8868 11.1373 16.8868 13.0807 15.5834C13.83 15.0839 14.2358 14.4439 14.2358 13.7726C14.2358 13.1092 13.8222 12.4692 13.0807 11.9775C11.1373 10.6819 7.85923 10.6819 5.91582 11.9775Z" fill="#042656"/>
</svg>
