<svg width="19" height="20" viewBox="0 0 19 20" fill="none" xmlns="http://www.w3.org/2000/svg">
    <path d="M2.6637 15.2229C2.65342 15.2116 2.64335 15.2002 2.63342 15.1887C2.64334 15.2004 2.65359 15.2116 2.6637 15.2229ZM2.59631 15.1448C2.58191 15.127 2.56896 15.1083 2.5553 15.0901C2.56906 15.1085 2.58215 15.1271 2.59631 15.1448ZM2.39612 14.844C2.38882 14.8306 2.38075 14.8176 2.37366 14.804C2.3808 14.8175 2.38875 14.8306 2.39612 14.844ZM1.95764 7.802C1.95349 7.95218 1.95081 8.10807 1.95081 8.2688C1.95081 8.10929 1.95327 7.95539 1.95764 7.80786V7.802ZM5.85413 4.36548C5.44335 4.36548 5.11475 4.37957 4.83459 4.40454L4.56897 4.43286C4.48199 4.4424 4.39561 4.45277 4.31018 4.46509C4.39031 4.45279 4.47384 4.4424 4.56018 4.43286L4.56702 4.43188L4.57483 4.43091C4.88143 4.38911 5.28186 4.36548 5.85413 4.36548Z" fill="#042656" stroke="#042656" stroke-width="1.17073"/>
    <path d="M12.8781 16.6586H11.7229C11.4029 16.6586 11.1376 16.3932 11.1376 16.0732C11.1376 15.7532 11.4029 15.4878 11.7229 15.4878H12.8781C13.4088 15.4878 13.7834 15.4644 14.0878 15.4254C15.6722 15.2537 16.1951 14.7542 16.1951 12.1708V8.26832C16.1951 5.68491 15.6722 5.1932 14.1112 5.01369C13.7834 4.96686 13.4088 4.95125 12.8781 4.95125H11.7229C11.4029 4.95125 11.1376 4.68588 11.1376 4.36588C11.1376 4.04588 11.4029 3.78052 11.7229 3.78052H12.8781C13.4634 3.78052 13.8927 3.80393 14.2595 3.85857C16.8585 4.14735 17.3659 5.69271 17.3659 8.26832V12.1708C17.3659 14.7464 16.8507 16.2995 14.2361 16.5883C13.8927 16.6352 13.4634 16.6586 12.8781 16.6586Z" fill="#042656"/>
    <path d="M11.7073 18.6097C11.3873 18.6097 11.1219 18.3443 11.1219 18.0243V2.41459C11.1219 2.09459 11.3873 1.82922 11.7073 1.82922C12.0273 1.82922 12.2927 2.09459 12.2927 2.41459V18.0243C12.2927 18.3443 12.0273 18.6097 11.7073 18.6097Z" fill="#042656"/>
    <path d="M5.22928 10.9999C5.12782 10.9999 5.02635 10.9765 4.93269 10.9375C4.83904 10.8985 4.75318 10.8439 4.67513 10.7736C4.60489 10.6956 4.54245 10.6097 4.50343 10.516C4.4644 10.4224 4.44879 10.3209 4.44879 10.2195C4.44879 10.0165 4.53465 9.81361 4.67513 9.66532C4.96391 9.37654 5.48684 9.37654 5.78343 9.66532C5.92391 9.81361 6.00977 10.0165 6.00977 10.2195C6.00977 10.3209 5.98635 10.4224 5.94733 10.516C5.9083 10.6097 5.85367 10.6956 5.78343 10.7736C5.70538 10.8439 5.61952 10.8985 5.52586 10.9375C5.43221 10.9765 5.33074 10.9999 5.22928 10.9999Z" fill="#292D32"/>
    <path d="M8.35123 10.9999C8.24976 10.9999 8.1483 10.9765 8.05464 10.9375C7.96098 10.8985 7.87513 10.8439 7.79708 10.7736C7.72684 10.6956 7.6722 10.6097 7.62537 10.516C7.59415 10.4224 7.57074 10.3209 7.57074 10.2195C7.57074 10.0165 7.65659 9.81361 7.79708 9.66532C8.08586 9.37654 8.61659 9.37654 8.90537 9.66532C9.04586 9.81361 9.13172 10.0165 9.13172 10.2195C9.13172 10.3209 9.1083 10.4224 9.06928 10.516C9.03025 10.6097 8.97562 10.6956 8.90537 10.7736C8.82733 10.8439 8.74147 10.8985 8.64781 10.9375C8.55415 10.9765 8.45269 10.9999 8.35123 10.9999Z" fill="#292D32"/>
</svg>
