<svg width="19" height="20" viewBox="0 0 19 20" fill="none" xmlns="http://www.w3.org/2000/svg">
    <path d="M8.32721 17.4821C8.44028 17.4994 8.55421 17.5144 8.66901 17.5261L9.01471 17.5524C8.89837 17.5465 8.78277 17.5378 8.66803 17.5261L8.32721 17.4821ZM5.28229 16.2028C5.80841 16.5965 6.3932 16.916 7.02057 17.1462L7.33698 17.2536C6.69578 17.0538 6.09493 16.7618 5.54987 16.3932L5.28229 16.2028ZM12.0215 17.0231C11.9195 17.0664 11.8165 17.1079 11.712 17.1462L11.3946 17.2536C11.5012 17.2204 11.6067 17.1844 11.711 17.1462L12.0215 17.0231ZM12.9044 16.571C12.8106 16.628 12.7158 16.6835 12.6192 16.736L12.3243 16.8864C12.4237 16.8384 12.5215 16.7876 12.6182 16.735L12.9044 16.571ZM14.837 14.8151C14.509 15.2535 14.1298 15.6515 13.7081 15.9997L13.4493 16.2028C13.8878 15.8747 14.2855 15.4949 14.6339 15.0729L14.837 14.8151ZM3.70416 14.5475C3.88839 14.82 4.09202 15.0784 4.31256 15.321L4.53912 15.5583C4.3072 15.3264 4.09145 15.0782 3.89459 14.8151L3.70416 14.5475ZM3.211 13.6901C3.25898 13.7895 3.30977 13.8874 3.36237 13.9841L3.52643 14.2702C3.46951 14.1766 3.41484 14.0815 3.36237 13.985L3.211 13.6901ZM15.5206 13.6901C15.4725 13.7897 15.4228 13.8882 15.3702 13.985L15.2051 14.2702C15.2622 14.1764 15.3166 14.0808 15.3692 13.9841L15.5206 13.6901ZM2.84381 12.7604C2.87708 12.8672 2.9139 12.9724 2.95221 13.0768L3.07428 13.3874C3.03106 13.2853 2.98956 13.1823 2.95123 13.0778L2.84381 12.7604ZM3.211 7.77411C3.11502 7.97301 3.02889 8.17743 2.95221 8.38641L2.84381 8.70282C2.94373 8.38217 3.06695 8.07168 3.211 7.77313V7.77411ZM14.837 6.64813C15.0993 6.9987 15.3286 7.37526 15.5206 7.77313L15.6573 8.07587C15.4843 7.6678 15.2729 7.27983 15.0274 6.91669L14.837 6.64813ZM4.09772 6.39032C3.95835 6.55913 3.82707 6.73488 3.70416 6.91669L3.52643 7.19305C3.64059 7.00533 3.76342 6.82345 3.89459 6.64813L4.09772 6.39032ZM13.1817 5.07001C13.4544 5.25436 13.7133 5.45767 13.9561 5.67841L14.1924 5.90497C13.9607 5.6732 13.7122 5.45817 13.4493 5.26141L13.1817 5.07001ZM5.82721 4.89227C5.63936 5.00655 5.45772 5.13011 5.28229 5.26141L5.02448 5.46356C5.1931 5.32436 5.36827 5.19278 5.54987 5.07001L5.82721 4.89227ZM12.3243 4.57684C12.424 4.62494 12.5223 4.67548 12.6192 4.72821L12.9044 4.89227C12.8105 4.8352 12.7149 4.78082 12.6182 4.72821L12.3243 4.57684ZM7.33698 4.20966C7.01666 4.30953 6.70655 4.43291 6.40826 4.57684L6.11334 4.72821C6.40356 4.57039 6.706 4.4321 7.01959 4.31708L7.33698 4.20966ZM11.3946 4.20966C11.5015 4.24297 11.6074 4.27871 11.712 4.31708L12.0215 4.44012C11.9193 4.39681 11.8157 4.35645 11.711 4.31805L11.3946 4.20966ZM9.01471 3.9118C8.89869 3.91771 8.78345 3.92652 8.66901 3.93817L8.32721 3.98114C8.43992 3.96388 8.55359 3.94983 8.66803 3.93817L9.01471 3.9118Z" fill="#042656" stroke="#042656" stroke-width="1.17073"/>
    <path d="M9.36588 11.1219C9.04588 11.1219 8.78052 10.8566 8.78052 10.5366V6.63413C8.78052 6.31413 9.04588 6.04877 9.36588 6.04877C9.68588 6.04877 9.95125 6.31413 9.95125 6.63413V10.5366C9.95125 10.8566 9.68588 11.1219 9.36588 11.1219Z" fill="#042656"/>
    <path d="M11.7073 2.53658H7.02439C6.70439 2.53658 6.43903 2.27121 6.43903 1.95121C6.43903 1.63121 6.70439 1.36584 7.02439 1.36584H11.7073C12.0273 1.36584 12.2927 1.63121 12.2927 1.95121C12.2927 2.27121 12.0273 2.53658 11.7073 2.53658Z" fill="#042656"/>
</svg>
