<svg width="19" height="20" viewBox="0 0 19 20" fill="none" xmlns="http://www.w3.org/2000/svg">
    <path d="M2.35376 13.6084C2.47469 14.7856 3.48046 15.6875 4.68286 15.6875H5.27563C5.82273 15.6875 6.34055 15.8738 6.76001 16.2148L6.93384 16.3701L8.26782 17.6885L8.26978 17.6904C8.87134 18.2795 9.83115 18.2857 10.4426 17.7129C10.1464 17.9975 9.75457 18.1465 9.36548 18.1465C9.01675 18.1464 8.66459 18.0283 8.38208 17.7988L8.26587 17.6934L8.26294 17.6904L6.92896 16.3721L6.92603 16.3691L6.75317 16.2158C6.33561 15.8794 5.82032 15.6953 5.27563 15.6953H4.68286C3.38662 15.6953 2.34129 14.6504 2.34106 13.3779L2.35376 13.6084ZM16.3782 13.6133C16.2586 14.7767 15.2643 15.6952 14.0491 15.6953H13.4553C13.011 15.6954 12.5799 15.8202 12.2083 16.0527C12.5811 15.8165 13.0114 15.6876 13.4631 15.6875H14.0491C15.3304 15.6873 16.3854 14.6563 16.3899 13.3779L16.3782 13.6133Z" fill="#042656" stroke="#042656" stroke-width="1.17073"/>
    <path d="M8.10164 12.3005H6.00993C5.66651 12.3005 5.34651 12.1365 5.14359 11.8556C4.94846 11.5902 4.90163 11.2625 4.99529 10.9503C5.26846 10.1151 5.93968 9.66242 6.53285 9.25657C7.15724 8.8351 7.50846 8.56977 7.50846 8.11709C7.50846 7.71123 7.18066 7.38338 6.7748 7.38338C6.36895 7.38338 6.04115 7.71123 6.04115 8.11709C6.04115 8.43709 5.77579 8.70245 5.45579 8.70245C5.13579 8.70245 4.87042 8.43709 4.87042 8.11709C4.87042 7.07123 5.72114 6.21265 6.7748 6.21265C7.82846 6.21265 8.67919 7.06343 8.67919 8.11709C8.67919 9.21757 7.85189 9.77949 7.18847 10.2322C6.77481 10.5132 6.38456 10.7785 6.18944 11.1298H8.09383C8.41383 11.1298 8.67919 11.3951 8.67919 11.7151C8.67919 12.0351 8.42164 12.3005 8.10164 12.3005Z" fill="#042656"/>
    <path d="M12.5189 12.3005C12.1989 12.3005 11.9335 12.0351 11.9335 11.7151V11.1766H10.4038C10.4038 11.1766 10.4038 11.1766 10.396 11.1766C10.0135 11.1766 9.66233 10.9737 9.4672 10.6459C9.27208 10.3103 9.27208 9.89661 9.4672 9.5688C9.99793 8.65563 10.6145 7.61755 11.1765 6.71219C11.4262 6.31414 11.9023 6.13466 12.3472 6.25954C12.7921 6.39222 13.1043 6.79811 13.0965 7.2664V10.0136H13.2682C13.5882 10.0136 13.8535 10.279 13.8535 10.599C13.8535 10.919 13.5882 11.1844 13.2682 11.1844H13.1043V11.723C13.1043 12.043 12.8467 12.3005 12.5189 12.3005ZM11.9335 7.71905C11.473 8.46832 10.997 9.27217 10.5677 10.0058H11.9335V7.71905Z" fill="#042656"/>
</svg>
