<svg width="19" height="20" viewBox="0 0 19 20" fill="none" xmlns="http://www.w3.org/2000/svg">
    <path d="M12.3553 15.5492C12.5115 15.5409 12.6682 15.5623 12.8202 15.6097C12.7262 15.5826 12.6287 15.5648 12.5282 15.559H12.3632C11.9947 15.5835 11.6601 15.7575 11.411 16.0287L11.3094 16.1508L11.3085 16.1517L10.5204 17.2045C10.1945 17.6234 9.76682 17.8294 9.36609 17.8295C8.9927 17.8295 8.60181 17.6501 8.30164 17.2963C8.5746 17.6093 8.94352 17.8119 9.36218 17.8119C9.76591 17.8118 10.1246 17.6246 10.3944 17.3304L10.5048 17.1986L10.5057 17.1967L11.2909 16.1469C11.5724 15.7774 11.9588 15.5703 12.3553 15.5492ZM5.27039 16.0326C4.76432 16.5738 4.35837 16.7781 4.08191 16.85C3.93457 16.8883 3.81074 16.8913 3.71082 16.8802C3.93814 16.8991 4.16406 16.8261 4.34167 16.7396C4.60875 16.6094 4.90461 16.3841 5.22839 16.0414L5.22937 16.0424C5.28618 15.9855 5.34517 15.9347 5.40417 15.8881L5.27039 16.0326ZM14.4403 2.48572C14.7997 2.61239 15.0658 2.78315 15.2675 2.99646C15.7581 3.51554 16.0155 4.43608 16.0155 6.15271V14.9418C16.0155 15.725 15.8541 16.1764 15.6952 16.433C15.5408 16.6823 15.3647 16.7855 15.2509 16.8324C15.1602 16.868 15.0144 16.9043 14.8134 16.8754C14.9134 16.8872 15.0158 16.8865 15.1171 16.8636L15.2284 16.8295L15.2421 16.8246C15.4322 16.7453 15.5596 16.6032 15.6395 16.4867C15.7242 16.3633 15.7886 16.2205 15.8378 16.0717C15.9364 15.7731 15.992 15.3919 15.9921 14.9418V6.15271C15.9921 5.4392 15.962 4.83221 15.8641 4.32947C15.7655 3.82268 15.5893 3.37571 15.2645 3.02478C15.0338 2.77555 14.7547 2.60429 14.4403 2.48572ZM7.22742 15.9203C6.99847 15.7141 6.71257 15.5804 6.39246 15.559H6.38269L6.37292 15.558C6.15366 15.5507 5.94324 15.5972 5.75183 15.6849L5.74402 15.6771C5.93069 15.5917 6.12096 15.5502 6.30652 15.5502H6.38464C6.68444 15.5684 6.98286 15.697 7.22742 15.9203ZM7.25574 15.9476C7.27882 15.9698 7.30211 15.9921 7.3241 16.016C7.30203 15.9924 7.27909 15.9698 7.25574 15.9476Z" fill="#042656" stroke="#042656" stroke-width="1.17073"/>
    <path d="M11.5122 9.04878H7.21952C6.89952 9.04878 6.63416 8.78342 6.63416 8.46342C6.63416 8.14342 6.89952 7.87805 7.21952 7.87805H11.5122C11.8322 7.87805 12.0976 8.14342 12.0976 8.46342C12.0976 8.78342 11.8322 9.04878 11.5122 9.04878Z" fill="#042656"/>
</svg>
