<svg width="19" height="20" viewBox="0 0 19 20" fill="none" xmlns="http://www.w3.org/2000/svg">
    <path d="M10.374 17.8147C10.0539 17.908 9.71354 17.9592 9.36615 17.9592C9.03891 17.9592 8.71671 17.914 8.41107 17.8313C8.72283 17.9134 9.04566 17.9553 9.36224 17.9553C9.69949 17.9553 10.0435 17.9081 10.374 17.8147ZM10.4794 17.7825C10.4617 17.7883 10.4445 17.7955 10.4267 17.801C10.4445 17.7957 10.4617 17.7881 10.4794 17.7825ZM2.76068 12.8792C2.75188 12.8469 2.745 12.8144 2.73724 12.7825C2.74503 12.8146 2.75193 12.8471 2.76068 12.8792ZM2.6806 12.4993C2.67554 12.4648 2.67255 12.4305 2.66888 12.3967C2.67252 12.4308 2.67563 12.465 2.6806 12.4993ZM8.75385 2.38599C8.60389 2.40819 8.45741 2.4402 8.32025 2.48169L8.18549 2.52661H8.18451L4.29193 3.9856C3.81664 4.16245 3.41407 4.52844 3.1347 4.93091C2.85544 5.33332 2.65337 5.83759 2.65326 6.34497V6.33716C2.65345 5.43824 3.29651 4.45048 4.11908 4.05396L4.28607 3.98267H4.28705L8.18158 2.52271C8.3427 2.4625 8.53838 2.41675 8.75385 2.38599ZM16.0292 5.94263C15.9573 5.57611 15.7942 5.22493 15.5888 4.92896C15.3538 4.59033 15.032 4.27872 14.6542 4.08032C15.3344 4.4311 15.8816 5.18295 16.0292 5.94263ZM8.78021 2.38306C8.86791 2.37116 8.95861 2.36111 9.0517 2.35474C8.96103 2.36131 8.87009 2.3704 8.78021 2.38306ZM16.0341 5.96216C16.0399 5.99335 16.0434 6.02474 16.0478 6.05591C16.0433 6.02465 16.0399 5.99323 16.0341 5.96216Z" fill="#042656" stroke="#042656" stroke-width="1.17073"/>
    <path d="M9.36582 11.122C8.17948 11.122 7.21948 10.162 7.21948 8.97569C7.21948 7.78935 8.17948 6.82935 9.36582 6.82935C10.5522 6.82935 11.5122 7.78935 11.5122 8.97569C11.5122 10.162 10.5522 11.122 9.36582 11.122ZM9.36582 8.00008C8.82729 8.00008 8.39021 8.43715 8.39021 8.97569C8.39021 9.51422 8.82729 9.9513 9.36582 9.9513C9.90436 9.9513 10.3414 9.51422 10.3414 8.97569C10.3414 8.43715 9.90436 8.00008 9.36582 8.00008Z" fill="#042656"/>
    <path d="M9.36588 13.4635C9.04588 13.4635 8.78052 13.1981 8.78052 12.8781V10.5367C8.78052 10.2167 9.04588 9.95129 9.36588 9.95129C9.68588 9.95129 9.95125 10.2167 9.95125 10.5367V12.8781C9.95125 13.1981 9.68588 13.4635 9.36588 13.4635Z" fill="#042656"/>
</svg>
