<svg width="19" height="20" viewBox="0 0 19 20" fill="none" xmlns="http://www.w3.org/2000/svg">
    <mask id="path-1-inside-1_46_200" fill="white">
        <path d="M8.42147 12.5717C8.26538 12.5717 8.11708 12.5093 8.00782 12.4L6.11904 10.5112C5.89269 10.2849 5.89269 9.91025 6.11904 9.68391C6.34538 9.45757 6.72001 9.45757 6.94635 9.68391L8.42147 11.159L11.7776 7.80293C12.0039 7.57659 12.3785 7.57659 12.6049 7.80293C12.8312 8.02928 12.8312 8.40391 12.6049 8.63025L8.83513 12.4C8.72586 12.5093 8.57757 12.5717 8.42147 12.5717Z"/>
    </mask>
    <path d="M8.42147 12.5717C8.26538 12.5717 8.11708 12.5093 8.00782 12.4L6.11904 10.5112C5.89269 10.2849 5.89269 9.91025 6.11904 9.68391C6.34538 9.45757 6.72001 9.45757 6.94635 9.68391L8.42147 11.159L11.7776 7.80293C12.0039 7.57659 12.3785 7.57659 12.6049 7.80293C12.8312 8.02928 12.8312 8.40391 12.6049 8.63025L8.83513 12.4C8.72586 12.5093 8.57757 12.5717 8.42147 12.5717Z" fill="#FBE0B6"/>
    <path d="M8.00782 12.4L7.17998 13.2278L7.17998 13.2278L8.00782 12.4ZM6.11904 10.5112L6.94687 9.68339L6.94687 9.68339L6.11904 10.5112ZM6.94635 9.68391L6.11852 10.5117L6.11852 10.5117L6.94635 9.68391ZM8.42147 11.159L7.59364 11.9869L8.42147 12.8147L9.24931 11.9869L8.42147 11.159ZM11.7776 7.80293L12.6054 8.63077L12.6054 8.63077L11.7776 7.80293ZM12.6049 8.63025L11.7771 7.80242L11.7771 7.80242L12.6049 8.63025ZM8.83513 12.4L9.66297 13.2278L9.66297 13.2278L8.83513 12.4ZM8.42147 12.5717V11.401C8.5794 11.401 8.72787 11.4644 8.83565 11.5722L8.00782 12.4L7.17998 13.2278C7.5063 13.5542 7.95135 13.7424 8.42147 13.7424V12.5717ZM8.00782 12.4L8.83565 11.5722L6.94687 9.68339L6.11904 10.5112L5.2912 11.3391L7.17998 13.2278L8.00782 12.4ZM6.11904 10.5112L6.94687 9.68339C7.17773 9.91425 7.17773 10.2809 6.94687 10.5117L6.11904 9.68391L5.2912 8.85608C4.60766 9.53962 4.60766 10.6555 5.2912 11.3391L6.11904 10.5112ZM6.11904 9.68391L6.94687 10.5117C6.71601 10.7426 6.34938 10.7426 6.11852 10.5117L6.94635 9.68391L7.77418 8.85608C7.09064 8.17254 5.97474 8.17254 5.2912 8.85608L6.11904 9.68391ZM6.94635 9.68391L6.11852 10.5117L7.59364 11.9869L8.42147 11.159L9.24931 10.3312L7.77418 8.85608L6.94635 9.68391ZM8.42147 11.159L9.24931 11.9869L12.6054 8.63077L11.7776 7.80293L10.9497 6.9751L7.59364 10.3312L8.42147 11.159ZM11.7776 7.80293L12.6054 8.63077C12.3745 8.86162 12.0079 8.86162 11.7771 8.63077L12.6049 7.80293L13.4327 6.9751C12.7492 6.29156 11.6333 6.29156 10.9497 6.9751L11.7776 7.80293ZM12.6049 7.80293L11.7771 8.63077C11.5462 8.39991 11.5462 8.03328 11.7771 7.80242L12.6049 8.63025L13.4327 9.45808C14.1163 8.77454 14.1163 7.65864 13.4327 6.9751L12.6049 7.80293ZM12.6049 8.63025L11.7771 7.80242L8.0073 11.5722L8.83513 12.4L9.66297 13.2278L13.4327 9.45808L12.6049 8.63025ZM8.83513 12.4L8.0073 11.5722C8.11508 11.4644 8.26355 11.401 8.42147 11.401V12.5717V13.7424C8.8916 13.7424 9.33665 13.5542 9.66297 13.2278L8.83513 12.4Z" fill="#042656" mask="url(#path-1-inside-1_46_200)"/>
    <path d="M3.04102 12.426C3.01452 12.3859 2.98565 12.3469 2.9541 12.3108H2.95312L1.90527 11.0764C1.84574 11.0058 1.79392 10.9295 1.75 10.8489C1.79292 10.9258 1.84428 10.9992 1.90332 11.0686V11.0696L2.95508 12.3079V12.3088C2.9848 12.3442 3.01355 12.3836 3.04102 12.426ZM3.04102 12.426C3.06433 12.462 3.08621 12.5005 3.10742 12.5403C3.08705 12.502 3.06555 12.4632 3.04102 12.426ZM3.3252 14.7708C3.40268 15.5291 4.04477 16.1232 4.82324 16.1233H6.17383C6.44764 16.1233 6.81389 16.2458 7.05957 16.4133L7.15723 16.4875V16.4885L8.39062 17.55L8.39258 17.551C8.67807 17.7947 9.04222 17.8967 9.37402 17.8967C9.56173 17.8967 9.75909 17.8626 9.94727 17.7903C9.76581 17.8635 9.56844 17.9025 9.36621 17.9026C9.00155 17.9026 8.64789 17.7808 8.38086 17.552H8.38184L7.14844 16.4905H7.14746C7.0031 16.3658 6.81483 16.2825 6.67871 16.2336C6.53852 16.1833 6.34603 16.1311 6.16602 16.1311H4.82324C3.99148 16.131 3.31738 15.4561 3.31738 14.6243L3.3252 14.7708ZM12.4424 16.1311C12.4727 16.1273 12.5025 16.1266 12.5312 16.1252C12.5017 16.1263 12.472 16.1276 12.4424 16.1311ZM3.12012 12.5657C3.23736 12.7944 3.31728 13.0691 3.31738 13.2815V13.2893C3.3173 13.1081 3.26369 12.9167 3.21289 12.7776C3.1897 12.7141 3.15844 12.6408 3.12012 12.5657ZM3.38477 5.12329C3.34071 5.26464 3.3174 5.41489 3.31738 5.57056C3.3174 5.41448 3.34068 5.2639 3.38477 5.12231V5.12329ZM4.2373 4.18286C4.01204 4.27835 3.81474 4.42733 3.66113 4.61353L3.57422 4.72876C3.70959 4.52833 3.89197 4.36234 4.10547 4.24634L4.2373 4.18286ZM4.82324 4.0647C4.71958 4.06471 4.61833 4.07492 4.52051 4.09497L4.37598 4.13208C4.5173 4.08817 4.66749 4.06471 4.82324 4.0647ZM12.502 4.05981C12.4837 4.05852 12.4651 4.05811 12.4463 4.05591C12.4649 4.05798 12.4834 4.05864 12.502 4.05981ZM6.47949 4.02173C6.55764 4.00228 6.6302 3.9794 6.69043 3.95728C6.82738 3.90694 7.00726 3.82574 7.14355 3.71509L7.15039 3.70923L7.15625 3.70435L7.77246 3.1731L7.16309 3.70239C6.99676 3.84226 6.72949 3.96136 6.47949 4.02173ZM12.3398 4.03931C12.332 4.03779 12.3243 4.03607 12.3164 4.03442C12.3242 4.03603 12.332 4.03781 12.3398 4.03931ZM6.2998 4.05493C6.25592 4.06016 6.21379 4.06469 6.17383 4.0647C6.21561 4.06469 6.25777 4.06002 6.2998 4.05493ZM6.44922 4.02954C6.4176 4.03659 6.38616 4.0412 6.35547 4.04614C6.38711 4.04092 6.41868 4.03655 6.44922 4.02954Z" fill="#FBE0B6" stroke="#042656" stroke-width="1.17073"/>
</svg>
