<svg width="20" height="20" viewBox="0 0 20 20" fill="none" xmlns="http://www.w3.org/2000/svg">
    <path d="M14.7929 5.87493C14.5929 5.8416 14.3845 5.83328 14.1679 5.83328H5.83455C5.60121 5.83328 5.37621 5.84994 5.15955 5.88327C5.27621 5.64994 5.44288 5.4333 5.64288 5.2333L8.35121 2.51663C9.49288 1.38329 11.3429 1.38329 12.4845 2.51663L13.9429 3.99159C14.4762 4.51659 14.7595 5.18327 14.7929 5.87493Z" stroke="#042656" stroke-linecap="round" stroke-linejoin="round"/>
    <path d="M7.50004 15.8333C7.50004 16.4583 7.32504 17.05 7.01671 17.55C6.44171 18.5167 5.38337 19.1667 4.16671 19.1667C2.95004 19.1667 1.89171 18.5167 1.31671 17.55C1.00837 17.05 0.833374 16.4583 0.833374 15.8333C0.833374 13.9917 2.32504 12.5 4.16671 12.5C6.00837 12.5 7.50004 13.9917 7.50004 15.8333Z" stroke="#042656" stroke-miterlimit="10" stroke-linecap="round" stroke-linejoin="round"/>
    <path d="M5.40985 15.8163H2.92651" stroke="#042656" stroke-miterlimit="10" stroke-linecap="round" stroke-linejoin="round"/>
    <path d="M4.16675 14.5996V17.0913" stroke="#042656" stroke-miterlimit="10" stroke-linecap="round" stroke-linejoin="round"/>
    <path d="M18.3333 10V14.1667C18.3333 16.6667 16.6666 18.3334 14.1666 18.3334H6.35829C6.61663 18.1167 6.84163 17.85 7.01663 17.55C7.32496 17.05 7.49996 16.4584 7.49996 15.8334C7.49996 13.9917 6.00829 12.5 4.16663 12.5C3.16663 12.5 2.27496 12.9417 1.66663 13.6334V10C1.66663 7.73337 3.03329 6.15004 5.15829 5.88337C5.37496 5.85004 5.59996 5.83337 5.83329 5.83337H14.1666C14.3833 5.83337 14.5916 5.8417 14.7916 5.87503C16.9416 6.12503 18.3333 7.71671 18.3333 10Z" stroke="#042656" stroke-linecap="round" stroke-linejoin="round"/>
    <path d="M18.3333 10.4166H15.8333C14.9166 10.4166 14.1666 11.1666 14.1666 12.0833C14.1666 13 14.9166 13.75 15.8333 13.75H18.3333" stroke="#042656" stroke-linecap="round" stroke-linejoin="round"/>
</svg>
