<svg width="25" height="25" viewBox="0 0 25 25" fill="none" xmlns="http://www.w3.org/2000/svg">
    <path d="M13.5 11.65H7.5" stroke="#BBBBBB" stroke-width="1.5" stroke-linecap="round" stroke-linejoin="round"/>
    <path d="M2.5 11.6501V7.03009C2.5 4.99009 4.15 3.34009 6.19 3.34009H11.81C13.85 3.34009 15.5 4.61009 15.5 6.65009" stroke="#BBBBBB" stroke-width="1.5" stroke-linecap="round" stroke-linejoin="round"/>
    <path d="M17.98 12.7C17.48 13.18 17.24 13.92 17.44 14.68C17.69 15.61 18.61 16.2 19.57 16.2H20.5V17.65C20.5 19.86 18.71 21.65 16.5 21.65H6.5C4.29 21.65 2.5 19.86 2.5 17.65V10.65C2.5 8.44002 4.29 6.65002 6.5 6.65002H16.5C18.7 6.65002 20.5 8.45002 20.5 10.65V12.1H19.42C18.86 12.1 18.35 12.32 17.98 12.7Z" stroke="#BBBBBB" stroke-width="1.5" stroke-linecap="round" stroke-linejoin="round"/>
    <path d="M22.5 13.12V15.18C22.5 15.74 22.0399 16.2 21.4699 16.2H19.5399C18.4599 16.2 17.47 15.41 17.38 14.33C17.32 13.7 17.5599 13.11 17.9799 12.7C18.3499 12.32 18.86 12.1 19.42 12.1H21.4699C22.0399 12.1 22.5 12.56 22.5 13.12Z" stroke="#BBBBBB" stroke-width="1.5" stroke-linecap="round" stroke-linejoin="round"/>
</svg>
